<?xml version="1.0" encoding="UTF-8"?>
<svg version="1.1" xmlns="http://www.w3.org/2000/svg" width="333" height="187">
<path d="M0 0 C109.89 0 219.78 0 333 0 C333 61.71 333 123.42 333 187 C223.11 187 113.22 187 0 187 C0 125.29 0 63.58 0 0 Z " fill="#FCFDFD" transform="translate(0,0)"/>
<path d="M0 0 C1.04243362 -0.010952 1.04243362 -0.010952 2.10592651 -0.02212524 C4.39324049 -0.03828086 6.67769443 -0.01117605 8.96484375 0.01806641 C10.55997719 0.01910436 12.15511322 0.01806606 13.75024414 0.01504517 C17.08941973 0.01522436 20.42762698 0.03602618 23.76660156 0.07226562 C28.04076242 0.11764234 32.3135094 0.11872664 36.58784485 0.10523033 C39.880539 0.09853829 43.17291241 0.11183373 46.46554565 0.1314888 C48.04115112 0.1391718 49.61679234 0.14149793 51.19241333 0.13831711 C53.39719256 0.13757289 55.60017857 0.16288714 57.8046875 0.1953125 C59.05757568 0.20452728 60.31046387 0.21374207 61.60131836 0.22323608 C65.49501307 0.83824028 67.13534855 1.98695721 69.90234375 4.74462891 C71.34375 7.52197266 71.34375 7.52197266 72.46484375 10.68212891 C72.87992188 11.84228516 73.295 13.00244141 73.72265625 14.19775391 C75.15576948 18.50658441 76.51058852 22.83196686 77.8125 27.18212891 C79.78161929 33.61881993 81.96212974 39.98589641 84.10693359 46.36572266 C84.91800945 48.79148176 85.71824542 51.22058572 86.515625 53.65087891 C86.77939941 54.45178955 87.04317383 55.2527002 87.31494141 56.07788086 C87.81564755 57.59908734 88.31417427 59.1210137 88.81005859 60.64379883 C89.86219889 63.82930267 90.96327546 66.88168352 92.328125 69.95166016 C94.16698997 74.13159126 95.37834249 78.48289299 96.69287109 82.85009766 C98.87300239 89.97521262 101.36421486 97.00250897 103.78729248 104.04766846 C105.35973218 108.61971512 106.92585321 113.1939252 108.4921875 117.76806641 C108.79545959 118.65327972 109.09873169 119.53849304 109.41119385 120.45053101 C111.83202764 127.52299451 114.21250818 134.60805783 116.54638672 141.7097168 C118.00418568 146.12488577 119.52462006 150.51218446 121.09375 154.88916016 C121.65376709 156.46093018 121.65376709 156.46093018 122.22509766 158.06445312 C122.94697768 160.08337731 123.67663238 162.09954542 124.41552734 164.11230469 C127.55564577 172.90869208 127.55564577 172.90869208 126.90234375 177.74462891 C125.10240601 180.44453552 123.81857075 182.28651541 120.90234375 183.74462891 C118.68438599 183.88292522 116.46229592 183.95636809 114.24047852 184.00097656 C113.5555986 184.01557922 112.87071869 184.03018188 112.16508484 184.04522705 C105.82584621 184.17158855 99.48534796 184.24009115 93.14511204 184.29306984 C88.89047943 184.32873186 84.63775339 184.38177728 80.3840332 184.47851562 C76.26420144 184.57191707 72.14605149 184.62008289 68.02522087 184.63746262 C66.46270985 184.65146457 64.90025062 184.68089399 63.3383503 184.72676468 C55.18728932 184.95429097 49.19174067 184.74932546 42.54150391 179.36376953 C40.96027659 177.85985802 39.40791566 176.32427535 37.90234375 174.74462891 C36.90909982 173.80426521 35.91566612 172.86410182 34.921875 171.92431641 C34.19355469 171.16376953 33.46523437 170.40322266 32.71484375 169.61962891 C29.2225939 166.04462432 25.64040764 162.70849186 21.83984375 159.46728516 C19.72013788 157.58262732 17.75445066 155.59040362 15.77734375 153.55712891 C12.69440368 150.41935394 9.66897857 148.0046098 5.90234375 145.74462891 C5.53109375 147.66275391 5.53109375 147.66275391 5.15234375 149.61962891 C4.19616968 153.92575547 2.75382427 157.79977161 1.0390625 161.85400391 C0.15990441 164.08966365 -0.60994527 166.28492686 -1.328125 168.57275391 C-1.53912842 169.24097168 -1.75013184 169.90918945 -1.9675293 170.59765625 C-2.57193985 172.53710927 -3.16322004 174.48063949 -3.75390625 176.42431641 C-5.16185763 179.90326604 -6.21893736 181.40186537 -9.09765625 183.74462891 C-11.55711365 184.2592926 -11.55711365 184.2592926 -14.33764648 184.27807617 C-15.38230576 184.29391251 -16.42696503 184.30974884 -17.50328064 184.32606506 C-18.62626053 184.32110519 -19.74924042 184.31614532 -20.90625 184.31103516 C-22.06512222 184.31723373 -23.22399445 184.32343231 -24.41798401 184.32981873 C-26.86824707 184.33692124 -29.31855834 184.33373547 -31.76879883 184.32104492 C-35.51799404 184.30719232 -39.26468801 184.34123255 -43.01367188 184.37939453 C-45.39453186 184.38034583 -47.77539497 184.37848633 -50.15625 184.37353516 C-51.27720566 184.38679337 -52.39816132 184.40005157 -53.55308533 184.41371155 C-61.31014258 184.32092762 -61.31014258 184.32092762 -65.28271484 181.41381836 C-67.60342197 178.00081176 -68.075646 175.87375189 -68.09765625 171.74462891 C-67.31925083 169.04426973 -66.50553467 166.67806522 -65.41015625 164.11962891 C-63.0084049 158.30486248 -61.06144189 152.45497924 -59.24291992 146.43115234 C-57.27744429 140.10442414 -55.09188244 133.85338295 -52.92944336 127.59179688 C-51.46941837 123.36213833 -50.01753331 119.12969086 -48.56640625 114.89697266 C-48.27052612 114.03393524 -47.974646 113.17089783 -47.6697998 112.28170776 C-45.16781139 104.97227307 -42.71603156 97.6469206 -40.28445435 90.31381226 C-38.82504777 85.91691628 -37.35664279 81.52301102 -35.88999939 77.12852478 C-34.12193748 71.82731757 -32.36171459 66.52355541 -30.60595703 61.21826172 C-28.51465929 54.90020092 -26.41186213 48.58605533 -24.29950142 42.27500534 C-23.11378447 38.73113641 -21.93295054 35.18580461 -20.76367188 31.63647461 C-19.65248418 28.26392631 -18.52845194 24.89592287 -17.3950634 21.53077316 C-16.77412606 19.67616651 -16.16660794 17.81708399 -15.5594635 15.95791626 C-15.17769455 14.83195038 -14.7959256 13.7059845 -14.40258789 12.54589844 C-13.91394005 11.07662399 -13.91394005 11.07662399 -13.41542053 9.57766724 C-10.27963624 2.83609956 -7.54554965 -0.00758146 0 0 Z " fill="#30AEE9" transform="translate(137.09765625,1.25537109375)"/>
<path d="M0 0 C0.9590625 0.03673828 0.9590625 0.03673828 1.9375 0.07421875 C2.576875 0.07035156 3.21625 0.06648437 3.875 0.0625 C7.59699211 1.32431172 10.11899908 4.11645428 11.85803223 7.61207581 C12.70421306 9.81210344 13.45196536 12.02499957 14.171875 14.26953125 C14.45161667 15.10012054 14.73135834 15.93070984 15.01957703 16.78646851 C15.92355805 19.48191688 16.80614935 22.1837947 17.6875 24.88671875 C18.30363038 26.74582041 18.92090572 28.60454299 19.53930664 30.46289062 C20.46711325 33.25421386 21.3929874 36.04608807 22.31214905 38.840271 C24.10968979 44.30298341 25.96338959 49.74056217 27.88671875 55.16015625 C28.52625488 56.98716064 28.52625488 56.98716064 29.17871094 58.85107422 C29.9517856 61.05512587 30.73679056 63.25504531 31.53613281 65.44970703 C35.62344972 77.31541833 32.11511905 85.97067469 28 97.38671875 C27.31158278 99.32193874 26.62593376 101.25810647 25.94200134 103.19491577 C25.32168618 104.94756873 24.69438481 106.69774454 24.06665039 108.44775391 C22.90793086 111.84850177 21.92449915 115.30722173 20.9375 118.76171875 C30.5075 119.09171875 40.0775 119.42171875 49.9375 119.76171875 C50.700625 122.23671875 51.46375 124.71171875 52.25 127.26171875 C54.29815151 133.85600379 56.48901549 140.39102096 58.78515625 146.90234375 C59.0333461 147.60963623 59.28153595 148.31692871 59.5372467 149.0456543 C61.04621723 153.34600563 61.04621723 153.34600563 62.57754517 157.63842773 C63.30867733 159.67105529 64.02637057 161.70803129 64.7421875 163.74609375 C65.16483887 164.92913086 65.58749023 166.11216797 66.02294922 167.33105469 C67.01353717 171.04694948 67.30586918 173.9340029 66.9375 177.76171875 C65.9475 179.41171875 64.9575 181.06171875 63.9375 182.76171875 C84.7275 182.43171875 105.5175 182.10171875 126.9375 181.76171875 C126.6075 182.42171875 126.2775 183.08171875 125.9375 183.76171875 C116.7401904 183.97116949 107.54371374 184.1306209 98.34453106 184.2280283 C94.07184209 184.27480412 89.80079616 184.33813721 85.52905273 184.44067383 C81.39862497 184.5391866 77.26976688 184.59242349 73.13825417 184.61561394 C71.57013062 184.63211714 70.00208348 184.66434498 68.43463707 184.71328926 C60.26452592 184.95802593 54.24085127 184.78365086 47.57226562 179.38305664 C45.9922863 177.87858907 44.44134629 176.34228944 42.9375 174.76171875 C41.94437607 173.82122832 40.95096955 172.88103599 39.95703125 171.94140625 C39.22871094 171.18085938 38.50039062 170.4203125 37.75 169.63671875 C34.25775015 166.06171416 30.67556389 162.7255817 26.875 159.484375 C24.75529413 157.59971716 22.78960691 155.60749347 20.8125 153.57421875 C17.72955993 150.43644378 14.70413482 148.02169964 10.9375 145.76171875 C10.56625 147.67984375 10.56625 147.67984375 10.1875 149.63671875 C9.23132593 153.94284531 7.78898052 157.81686146 6.07421875 161.87109375 C5.19506066 164.1067535 4.42521098 166.30201671 3.70703125 168.58984375 C3.49602783 169.25806152 3.28502441 169.9262793 3.06762695 170.61474609 C2.4632164 172.55419911 1.87193621 174.49772934 1.28125 176.44140625 C-0.12670138 179.92035588 -1.18378111 181.41895521 -4.0625 183.76171875 C-6.5219574 184.27638245 -6.5219574 184.27638245 -9.30249023 184.29516602 C-10.34714951 184.31100235 -11.39180878 184.32683868 -12.46812439 184.34315491 C-13.59110428 184.33819504 -14.71408417 184.33323517 -15.87109375 184.328125 C-17.02996597 184.33432358 -18.1888382 184.34052216 -19.38282776 184.34690857 C-21.83309082 184.35401108 -24.28340209 184.35082532 -26.73364258 184.33813477 C-30.48283779 184.32428216 -34.22953176 184.35832239 -37.97851562 184.39648438 C-40.35937561 184.39743567 -42.74023872 184.39557618 -45.12109375 184.390625 C-46.24204941 184.40388321 -47.36300507 184.41714142 -48.51792908 184.43080139 C-56.27498633 184.33801746 -56.27498633 184.33801746 -60.24755859 181.4309082 C-62.56826572 178.01790161 -63.04048975 175.89084173 -63.0625 171.76171875 C-62.28409458 169.06135957 -61.47037842 166.69515506 -60.375 164.13671875 C-57.97324865 158.32195232 -56.02628564 152.47206908 -54.20776367 146.44824219 C-52.24228804 140.12151398 -50.05672619 133.87047279 -47.89428711 127.60888672 C-46.43426212 123.37922817 -44.98237706 119.1467807 -43.53125 114.9140625 C-43.23536987 114.05102509 -42.93948975 113.18798767 -42.63464355 112.29879761 C-40.13265514 104.98936292 -37.68087531 97.66401044 -35.2492981 90.3309021 C-33.78989152 85.93400613 -32.32148654 81.54010086 -30.85484314 77.14561462 C-29.08678123 71.84440741 -27.32655834 66.54064526 -25.57080078 61.23535156 C-23.47950304 54.91729076 -21.37670588 48.60314518 -19.26434517 42.29209518 C-18.07862822 38.74822626 -16.89779429 35.20289445 -15.72851562 31.65356445 C-14.61732793 28.28101615 -13.49329569 24.91301271 -12.35990715 21.54786301 C-11.73896981 19.69325636 -11.13145169 17.83417383 -10.52430725 15.9750061 C-5.839 2.15644886 -5.839 2.15644886 0 0 Z " fill="#0957A0" transform="translate(132.0625,1.23828125)"/>
<path d="M0 0 C17.36459701 -0.12585848 34.65725901 0.0948264 52 1 C52.495 2.485 52.495 2.485 53 4 C55.43276386 5.18519265 57.28017286 6 60 6 C60.22204102 6.67699951 60.44408203 7.35399902 60.67285156 8.05151367 C62.64945527 14.03368186 64.69095618 19.98826507 66.796875 25.92578125 C67.53256036 28.01444163 68.26719401 30.10346891 69.00146484 32.19262695 C69.50409427 33.61608792 70.01033294 35.03827917 70.52001953 36.45922852 C71.26835597 38.54879207 72.00254181 40.64288975 72.734375 42.73828125 C73.16975586 43.96587158 73.60513672 45.19346191 74.05371094 46.45825195 C75.05958371 50.22300848 75.37986839 53.12325705 75 57 C74.01 58.65 73.02 60.3 72 62 C92.79 61.67 113.58 61.34 135 61 C134.67 61.66 134.34 62.32 134 63 C124.8026904 63.20945074 115.60621374 63.36890215 106.40703106 63.46630955 C102.13434209 63.51308537 97.86329616 63.57641846 93.59155273 63.67895508 C89.46112497 63.77746785 85.33226688 63.83070474 81.20075417 63.85389519 C79.63263062 63.87039839 78.06458348 63.90262623 76.49713707 63.95157051 C68.32702592 64.19630718 62.30335127 64.02193211 55.63476562 58.62133789 C54.0547863 57.11687032 52.50384629 55.58057069 51 54 C50.00687607 53.05950957 49.01346955 52.11931724 48.01953125 51.1796875 C47.29121094 50.41914063 46.56289062 49.65859375 45.8125 48.875 C42.32025015 45.29999541 38.73806389 41.96386295 34.9375 38.72265625 C32.81779413 36.83799841 30.85210691 34.84577472 28.875 32.8125 C25.81534263 29.69895434 22.67699875 27.36962142 19 25 C14.39534884 20.81395349 14.39534884 20.81395349 12.9375 17.8125 C11.7030957 15.42598502 10.42420837 15.06950369 8 14 C5.75 12.625 5.75 12.625 4 11 C4 9.68 4 8.36 4 7 C2.68 6.34 1.36 5.68 0 5 C0 3.35 0 1.7 0 0 Z " fill="#0272CA" transform="translate(124,122)"/>
<path d="M0 0 C7.15076085 3.45305015 12.47991682 9.42480789 17.99609375 15.02734375 C20.58195261 17.57287733 23.31322383 19.91984597 26.06640625 22.28125 C27.96681191 23.97049947 29.73286441 25.73525775 31.5 27.5625 C32.66526612 28.7097576 33.83207167 29.85545268 35 31 C35.75142776 31.80260002 35.75142776 31.80260002 36.51803589 32.62141418 C43.075511 38.65266481 50.95063682 37.85352071 59.3203125 37.76171875 C60.90876555 37.76322324 62.49721782 37.76665834 64.08566284 37.77192688 C67.40270219 37.77624362 70.71876432 37.75952982 74.03564453 37.72729492 C78.27728693 37.68744863 82.51710507 37.69684884 86.75880623 37.72152996 C90.03440192 37.73574 93.30957442 37.72560642 96.58514023 37.70801735 C98.14876163 37.70218825 99.7124267 37.70343924 101.27603531 37.71204185 C103.46380552 37.72007401 105.64893649 37.69569738 107.83642578 37.6628418 C109.07804474 37.65584763 110.3196637 37.64885345 111.59890747 37.64164734 C116.06004236 36.80001327 117.76555253 35.11569804 121 32 C120.8125 34.875 120.8125 34.875 120 38 C115.96170244 40.29272588 111.92687797 40.28737258 107.40232849 40.26742554 C106.26696792 40.27422221 106.26696792 40.27422221 105.10867077 40.28115618 C102.57686072 40.2937989 100.04526582 40.29217993 97.51342773 40.29052734 C95.69654056 40.2965125 93.87965594 40.30331801 92.06277466 40.31088257 C87.13112766 40.3285467 82.19955006 40.333238 77.26787448 40.33451414 C73.15228958 40.33641343 69.03672084 40.34377095 64.92114216 40.35085833 C55.21475375 40.36713989 45.50840245 40.37202733 35.80200195 40.37060547 C25.7822787 40.36940267 15.76277037 40.39053251 5.74310154 40.4220928 C-2.85657631 40.44821711 -11.45618375 40.45897445 -20.05590099 40.45769465 C-25.19356433 40.45718407 -30.33103648 40.46292052 -35.46866035 40.48405075 C-40.29748393 40.50336955 -45.12593258 40.50360139 -49.95476913 40.48901749 C-51.72852435 40.48692067 -53.50230266 40.49168197 -55.27601814 40.5037384 C-57.69422772 40.51911356 -60.11113184 40.50993542 -62.52931213 40.49447632 C-63.2340756 40.50476344 -63.93883907 40.51505057 -64.66495901 40.52564943 C-68.14753518 40.47631803 -69.73648909 40.21693691 -72.46691799 37.96909523 C-72.97283505 37.3192938 -73.47875212 36.66949238 -74 36 C-73.34 35.01 -72.68 34.02 -72 33 C-71.4484021 33.64899765 -70.8968042 34.2979953 -70.32849121 34.96665955 C-67.5417095 37.40019933 -66.38522264 37.50893094 -62.74414062 37.53344727 C-61.69625366 37.5492836 -60.6483667 37.56511993 -59.56872559 37.58143616 C-58.44260864 37.57647629 -57.3164917 37.57151642 -56.15625 37.56640625 C-54.41438416 37.57570412 -54.41438416 37.57570412 -52.6373291 37.58518982 C-50.18286986 37.59229179 -47.72836248 37.5891075 -45.27392578 37.57641602 C-41.51374916 37.5625507 -37.75606012 37.59661961 -33.99609375 37.63476562 C-31.61197856 37.63571679 -29.22786024 37.63385816 -26.84375 37.62890625 C-25.71763306 37.64216446 -24.59151611 37.65542267 -23.43127441 37.66908264 C-17.38652036 37.73203902 -17.38652036 37.73203902 -12.37109375 34.77001953 C-11.09711195 32.19619518 -10.03528286 29.80231577 -9.21875 27.05078125 C-8.79142578 25.65375977 -8.79142578 25.65375977 -8.35546875 24.22851562 C-7.93201172 22.78508789 -7.93201172 22.78508789 -7.5 21.3125 C-5.32508815 14.04789717 -2.93874218 6.99477888 0 0 Z " fill="#F9FBFB" transform="translate(143,147)"/>
<path d="M0 0 C2.98004558 3.43125351 4.28636114 7.17926971 5.6640625 11.43359375 C5.90160248 12.14854507 6.13914246 12.8634964 6.38388062 13.60011292 C6.88315459 15.10764895 7.3788221 16.61638362 7.87109375 18.1262207 C8.62212733 20.42869316 9.38427443 22.7272464 10.1484375 25.02539062 C10.63346931 26.49457499 11.11786562 27.96396935 11.6015625 29.43359375 C11.94062119 30.45881386 11.94062119 30.45881386 12.28652954 31.50474548 C13.42724144 35.01353031 14.27297884 38.36489418 15 42 C5.43 42 -4.14 42 -14 42 C-9.96340664 27.81076274 -5.63290076 13.65215357 0 0 Z " fill="#F4FAFA" transform="translate(166,79)"/>
<path d="M0 0 C3.114074 3.50333325 4.23639311 7.3980282 5.5 11.8125 C6.81976992 16.34654828 8.2611668 20.6199847 10.1809082 24.9440918 C11.19419837 27.48743502 11.97325602 30.06549049 12.76171875 32.6875 C15.25379221 40.96681382 18.07318312 49.1277599 20.88494873 57.30303955 C22.45738843 61.87508621 24.02350946 66.44929629 25.58984375 71.0234375 C25.89311584 71.90865082 26.19638794 72.79386414 26.5088501 73.7059021 C28.92968389 80.7783656 31.31016443 87.86342892 33.64404297 94.96508789 C35.10184193 99.38025686 36.62227631 103.76755555 38.19140625 108.14453125 C38.56475098 109.19237793 38.9380957 110.24022461 39.32275391 111.31982422 C40.04463393 113.33874841 40.77428863 115.35491651 41.51318359 117.36767578 C44.70534168 126.30984142 44.70534168 126.30984142 44 131 C41.5 133.875 41.5 133.875 39 136 C39.33 135.505 39.66 135.01 40 134.5 C42.57095683 128.07260793 40.69621604 122.06314611 38.3125 115.9375 C37.75783843 114.44448389 37.20447772 112.95098394 36.65234375 111.45703125 C36.37374512 110.71275879 36.09514648 109.96848633 35.80810547 109.20166016 C34.58465873 105.86841464 33.47768052 102.49972541 32.375 99.125 C30.96247139 94.84679833 29.50601817 90.59840301 27.9375 86.375 C26.12395476 81.45666532 24.58396722 76.4786433 23.0703125 71.4609375 C21.92082303 67.7439752 20.68688698 64.05914972 19.4375 60.375 C17.39438833 54.3024181 15.58714327 48.20663346 14 42 C13.34 42 12.68 42 12 42 C11.83781982 41.29037109 11.67563965 40.58074219 11.50854492 39.84960938 C9.31971998 30.65520041 6.25657665 21.88916133 3.05273438 13.0078125 C2.66021484 11.90179688 2.26769531 10.79578125 1.86328125 9.65625 C1.50532471 8.66431641 1.14736816 7.67238281 0.77856445 6.65039062 C0 4 0 4 0 0 Z " fill="#49A6D0" transform="translate(220,48)"/>
<path d="M0 0 C3.55411076 0.79294901 4.88557554 2.53199325 6.9609375 5.4375 C8.99777628 9.97932197 10.44777453 14.40685067 9.9609375 19.4375 C7.9609375 16.4375 7.9609375 16.4375 7.9609375 13.4375 C7.3009375 13.4375 6.6409375 13.4375 5.9609375 13.4375 C5.8371875 12.633125 5.7134375 11.82875 5.5859375 11 C5.3796875 10.154375 5.1734375 9.30875 4.9609375 8.4375 C4.3009375 8.1075 3.6409375 7.7775 2.9609375 7.4375 C2.9609375 6.4475 2.9609375 5.4575 2.9609375 4.4375 C2.0534375 4.80875 1.1459375 5.18 0.2109375 5.5625 C-3.0390625 6.4375 -3.0390625 6.4375 -7.0390625 4.4375 C-8.5240625 10.8725 -8.5240625 10.8725 -10.0390625 17.4375 C-9.3790625 17.7675 -8.7190625 18.0975 -8.0390625 18.4375 C-8.3690625 19.4275 -8.6990625 20.4175 -9.0390625 21.4375 C-10.0290625 21.4375 -11.0190625 21.4375 -12.0390625 21.4375 C-12.4721875 22.55125 -12.4721875 22.55125 -12.9140625 23.6875 C-14.0390625 26.4375 -14.0390625 26.4375 -15.1640625 28.4375 C-16.21024554 30.464937 -16.21024554 30.464937 -16.0390625 33 C-16.0390625 35.4375 -16.0390625 35.4375 -18.0390625 38.4375 C-17.7090625 39.0975 -17.3790625 39.7575 -17.0390625 40.4375 C-17.3690625 41.0975 -17.6990625 41.7575 -18.0390625 42.4375 C-18.6990625 42.4375 -19.3590625 42.4375 -20.0390625 42.4375 C-20.0390625 43.7575 -20.0390625 45.0775 -20.0390625 46.4375 C-20.6990625 46.4375 -21.3590625 46.4375 -22.0390625 46.4375 C-23.72787011 41.41213107 -22.14538796 37.76101554 -20.43359375 32.99609375 C-20.01287849 31.7890554 -20.01287849 31.7890554 -19.58366394 30.55763245 C-18.98845932 28.86027786 -18.38710321 27.16506954 -17.7800293 25.47192383 C-16.85560248 22.88629984 -15.95687207 20.29274584 -15.06054688 17.69726562 C-14.47808582 16.04633677 -13.89414995 14.39592735 -13.30859375 12.74609375 C-13.04174271 11.97309433 -12.77489166 11.20009491 -12.49995422 10.40367126 C-10.11820107 3.848963 -7.81307175 -0.46471802 0 0 Z " fill="#0B4681" transform="translate(136.0390625,1.5625)"/>
<path d="M0 0 C8.25815214 -0.09276991 16.51608577 -0.16379982 24.77463055 -0.20724869 C28.60962547 -0.22810438 32.44426331 -0.25638415 36.27905273 -0.30175781 C39.98139253 -0.34528908 43.68338934 -0.36915229 47.38596535 -0.37950897 C48.79696869 -0.38688742 50.20795372 -0.40129614 51.61881065 -0.42292023 C53.59814448 -0.45204479 55.57782502 -0.45363467 57.55737305 -0.45410156 C58.68322311 -0.46298401 59.80907318 -0.47186646 60.96903992 -0.48101807 C64.67844105 0.10766965 66.36746208 1.36836225 69 4 C69 4.66 69 5.32 69 6 C68.34 6 67.68 6 67 6 C66.01 4.515 66.01 4.515 65 3 C61.8815675 1.9605225 59.72524414 1.88505162 56.45703125 1.90234375 C54.84731445 1.90717773 54.84731445 1.90717773 53.20507812 1.91210938 C52.08552734 1.92048828 50.96597656 1.92886719 49.8125 1.9375 C48.11577148 1.94426758 48.11577148 1.94426758 46.38476562 1.95117188 C43.58979073 1.96296502 40.7949218 1.9794235 38 2 C38 2.66 38 3.32 38 4 C20 4 20 4 17.875 3.5 C14.19194194 2.85946816 10.73728209 2.93665624 7 3 C8.2413349 7.8965169 8.2413349 7.8965169 10.5 12.375 C13.51430421 17.65003237 14.08567137 24.0568639 15 30 C14.34 30 13.68 30 13 30 C12.71278076 29.19780029 12.42556152 28.39560059 12.12963867 27.5690918 C11.05726539 24.58662789 9.97736805 21.60702924 8.89233398 18.62915039 C8.42479148 17.34118171 7.96024015 16.05212303 7.4987793 14.76196289 C6.83394209 12.90485573 6.15734166 11.05197308 5.48046875 9.19921875 C5.07723389 8.08377686 4.67399902 6.96833496 4.25854492 5.8190918 C3.06691079 3.14987758 2.08523203 1.94214082 0 0 Z " fill="#48B9E2" transform="translate(138,2)"/>
<path d="M0 0 C2.76797447 1.38398724 2.99400592 3.26847029 3.953125 6.078125 C4.17484375 6.75359375 4.3965625 7.4290625 4.625 8.125 C4.96917969 9.10339844 4.96917969 9.10339844 5.3203125 10.1015625 C6.78738197 14.50277092 7.4742612 18.31253467 7 23 C6.01 24.65 5.02 26.3 4 28 C24.79 27.67 45.58 27.34 67 27 C66.67 27.66 66.34 28.32 66 29 C56.8026904 29.20945074 47.60621374 29.36890215 38.40703106 29.46630955 C34.13434209 29.51308537 29.86329616 29.57641846 25.59155273 29.67895508 C21.46112497 29.77746785 17.33226688 29.83070474 13.20075417 29.85389519 C11.63263062 29.87039839 10.06458348 29.90262623 8.49713707 29.95157051 C0.39148018 30.19437645 -5.66797931 30.04543697 -12.28979492 24.69897461 C-13.89695641 23.17073372 -15.47039762 21.60586575 -17 20 C-18.39535816 18.64534371 -19.79109637 17.29107857 -21.1875 15.9375 C-22.13047647 14.96360627 -23.07041929 13.98668806 -24 13 C-20.06830895 13 -18.83572772 14.39419615 -16 17 C-16 17.66 -16 18.32 -16 19 C-15.46375 19.226875 -14.9275 19.45375 -14.375 19.6875 C-12 21 -12 21 -9.1875 23.5625 C-6.02379519 26.31354766 -3.18833467 26.74869992 1 27 C0.34 27 -0.32 27 -1 27 C-1 26.01 -1 25.02 -1 24 C-0.34 24 0.32 24 1 24 C0.6596875 23.13375 0.6596875 23.13375 0.3125 22.25 C0 20 0 20 1.4375 18.0625 C2.2109375 17.0415625 2.2109375 17.0415625 3 16 C3.25124826 13.33238236 3.25124826 13.33238236 3 11 C2.01 10.67 1.02 10.34 0 10 C0 6.7 0 3.4 0 0 Z " fill="#1470B1" transform="translate(192,156)"/>
<path d="M0 0 C26.07 0 52.14 0 79 0 C79.495 1.485 79.495 1.485 80 3 C79.08180481 2.99333817 78.16360962 2.98667633 77.21759033 2.97981262 C68.56577144 2.91970918 59.91402264 2.87402946 51.262043 2.84456348 C46.81392768 2.82890547 42.36598481 2.80766479 37.91796875 2.77368164 C33.62562107 2.74109292 29.33343932 2.72314801 25.04097748 2.71536827 C23.40309792 2.70982387 21.76522747 2.69899702 20.12741852 2.68280983 C17.83376927 2.66104162 15.54080619 2.65803275 13.24707031 2.65942383 C11.94135071 2.65276199 10.6356311 2.64610016 9.29034424 2.63923645 C5.84167718 3.01735901 4.47188926 3.63731096 2 6 C1.34 4.02 0.68 2.04 0 0 Z " fill="#D6F6FD" transform="translate(124,0)"/>
<path d="M0 0 C1 3 1 3 0.3125 5.125 C-1 7 -1 7 -2.63482666 7.61009216 C-5.83124775 8.13703436 -8.91502698 8.11911202 -12.15527344 8.11352539 C-12.86786819 8.11367142 -13.58046295 8.11381744 -14.31465149 8.1139679 C-16.66292395 8.11327291 -19.01111645 8.10549994 -21.359375 8.09765625 C-22.99033566 8.0957906 -24.62129688 8.09436739 -26.2522583 8.09336853 C-30.53974969 8.08955494 -34.82720708 8.07973454 -39.11468506 8.06866455 C-43.49181661 8.05842553 -47.86895367 8.05386557 -52.24609375 8.04882812 C-60.83074475 8.03811123 -69.41536814 8.02104872 -78 8 C-78.66 6.68 -79.32 5.36 -80 4 C-79.01 4.33 -78.02 4.66 -77 5 C-74.7117872 5.11506434 -72.42037872 5.16943809 -70.12939453 5.19287109 C-69.43473083 5.20104858 -68.74006714 5.20922607 -68.02435303 5.21765137 C-65.72718154 5.24244953 -63.43007153 5.25900529 -61.1328125 5.2734375 C-60.34745998 5.27876118 -59.56210747 5.28408485 -58.75295639 5.28956985 C-54.59752123 5.31627482 -50.44211586 5.33565976 -46.28662109 5.35009766 C-42.84885106 5.36344759 -39.41167311 5.39132226 -35.97412109 5.43212891 C-31.82088655 5.48142861 -27.6681898 5.50621481 -23.51467514 5.51332474 C-21.93341067 5.52003837 -20.35215825 5.53526359 -18.77106094 5.55921555 C-16.55653594 5.59085439 -14.34408641 5.59090758 -12.12939453 5.58349609 C-10.87047394 5.59158295 -9.61155334 5.5996698 -8.31448364 5.60800171 C-4.15005237 4.84408745 -2.66624441 3.19720406 0 0 Z " fill="#C5EDFE" transform="translate(263,179)"/>
<path d="M0 0 C1.76462683 3.08809695 2 4.23312136 2 8 C-5.88426866 8.09271653 -13.76830922 8.16377259 -21.65298843 8.20724869 C-25.31426511 8.2281161 -28.97516858 8.25641706 -32.63623047 8.30175781 C-36.16998711 8.34524763 -39.70338499 8.36914348 -43.23738861 8.37950897 C-45.24051252 8.39048737 -47.24349226 8.42170876 -49.24639893 8.45318604 C-50.46736267 8.45348816 -51.68832642 8.45379028 -52.94628906 8.45410156 C-54.55845306 8.46742523 -54.55845306 8.46742523 -56.20318604 8.48101807 C-59.64598873 7.88889778 -60.81745412 6.65357295 -63 4 C-62.34 3.01 -61.68 2.02 -61 1 C-60.4484021 1.64899765 -59.8968042 2.2979953 -59.32849121 2.96665955 C-56.5417095 5.40019933 -55.38522264 5.50893094 -51.74414062 5.53344727 C-50.69625366 5.5492836 -49.6483667 5.56511993 -48.56872559 5.58143616 C-46.87955017 5.57399635 -46.87955017 5.57399635 -45.15625 5.56640625 C-43.41438416 5.57570412 -43.41438416 5.57570412 -41.6373291 5.58518982 C-39.18286986 5.59229179 -36.72836248 5.5891075 -34.27392578 5.57641602 C-30.51374916 5.5625507 -26.75606012 5.59661961 -22.99609375 5.63476562 C-20.61197856 5.63571679 -18.22786024 5.63385816 -15.84375 5.62890625 C-14.71763306 5.64216446 -13.59151611 5.65542267 -12.43127441 5.66908264 C-6.23798491 5.75358819 -6.23798491 5.75358819 -1.25976562 2.46069336 C-0.84404297 1.64866455 -0.42832031 0.83663574 0 0 Z " fill="#D0E8FA" transform="translate(132,179)"/>
<path d="M0 0 C19.47 0 38.94 0 59 0 C59.495 3.96 59.495 3.96 60 8 C56.74572241 7.43891766 55.12035493 6.54442592 53 4 C53 3.67 53 3.34 53 3 C27.26 2.01 27.26 2.01 1 1 C2.40371521 6.7018576 2.40371521 6.7018576 5 9 C3.125 8.875 3.125 8.875 1 8 C-0.3125 5.0625 -0.3125 5.0625 -1 2 C-0.67 1.34 -0.34 0.68 0 0 Z " fill="#116DB9" transform="translate(123,121)"/>
<path d="M0 0 C0.94616328 3.42984189 1 6.44175575 1 10 C1.268125 10.680625 1.53625 11.36125 1.8125 12.0625 C1.874375 12.701875 1.93625 13.34125 2 14 C0.83351182 15.13217971 -0.33863991 16.2589777 -1.53515625 17.359375 C-7.07470434 23.56366886 -8.72713632 32.38869169 -10.54223633 40.27075195 C-11.74048004 45.34750525 -13.38068978 49.5097539 -16 54 C-17.77832295 49.83805322 -16.04945237 46.24615753 -14.6484375 42.2265625 C-14.39252838 41.4663681 -14.13661926 40.70617371 -13.87295532 39.92294312 C-13.05008887 37.48684868 -12.21267348 35.05603742 -11.375 32.625 C-10.83369925 31.02766069 -10.29332529 29.43000699 -9.75390625 27.83203125 C-6.60002664 18.51972249 -3.33992256 9.24714102 0 0 Z " fill="#235688" transform="translate(109,56)"/>
<path d="M0 0 C2 1 2 1 3.15625 4.015625 C3.61119907 5.42483233 4.05841238 6.83654878 4.5 8.25 C6.45363709 14.3441243 8.47815034 20.40578351 10.6171875 26.4375 C11.07629259 27.73921524 11.53527646 29.04097325 11.99414062 30.34277344 C12.68057823 32.28962113 13.36970398 34.23526944 14.06811523 36.17785645 C14.72840032 38.01657853 15.37611722 39.85979872 16.0234375 41.703125 C16.40419434 42.77208008 16.78495117 43.84103516 17.17724609 44.94238281 C18.04355593 48.1618678 18.33298399 50.68410704 18 54 C15.5 56.875 15.5 56.875 13 59 C13.33 58.505 13.66 58.01 14 57.5 C16.57095683 51.07260793 14.69621604 45.06314611 12.3125 38.9375 C11.75783843 37.44448389 11.20447772 35.95098394 10.65234375 34.45703125 C10.37374512 33.71275879 10.09514648 32.96848633 9.80810547 32.20166016 C8.5846657 28.86843362 7.47725891 25.49984971 6.375 22.125 C4.61713124 16.78312698 2.73629747 11.51118441 0.69921875 6.26953125 C0 4 0 4 0 0 Z " fill="#4194C6" transform="translate(246,125)"/>
<path d="M0 0 C0.33 0 0.66 0 1 0 C0.7736065 8.16148585 0.52024296 14.14672842 -4 21 C-4.16750414 23.66709069 -4.16750414 23.66709069 -4 26 C-4.66 26.99 -5.32 27.98 -6 29 C-5.67 29.66 -5.34 30.32 -5 31 C-5.33 31.66 -5.66 32.32 -6 33 C-6.66 33 -7.32 33 -8 33 C-8 34.32 -8 35.64 -8 37 C-8.66 37 -9.32 37 -10 37 C-11.47720581 32.34112014 -10.30221723 28.93017039 -8.69140625 24.51171875 C-8.44583481 23.80852005 -8.20026337 23.10532135 -7.94725037 22.3808136 C-7.16370036 20.1455108 -6.36341086 17.91663378 -5.5625 15.6875 C-5.02687775 14.16901335 -4.49235987 12.65013667 -3.95898438 11.13085938 C-2.65207373 7.41593281 -1.33012253 3.70667565 0 0 Z " fill="#204D7D" transform="translate(124,11)"/>
<path d="M0 0 C0.66 0 1.32 0 2 0 C2.33 0.99 2.66 1.98 3 3 C21.48 3.33 39.96 3.66 59 4 C59 4.33 59 4.66 59 5 C38.87 5 18.74 5 -2 5 C-1.34 3.35 -0.68 1.7 0 0 Z " fill="#2C91D7" transform="translate(198,179)"/>
<path d="M0 0 C2.76797447 1.38398724 2.99400592 3.26847029 3.953125 6.078125 C4.28570312 7.09132812 4.28570312 7.09132812 4.625 8.125 C4.85445312 8.77726563 5.08390625 9.42953125 5.3203125 10.1015625 C6.78708293 14.50187378 7.40134602 18.30998511 7 23 C6.34 23.99 5.68 24.98 5 26 C4.34 25.67 3.68 25.34 3 25 C3.33 23.68 3.66 22.36 4 21 C3.01 20.34 2.02 19.68 1 19 C1.33 18.236875 1.66 17.47375 2 16.6875 C3.17436686 14.00930865 3.17436686 14.00930865 3 11 C2.01 10.67 1.02 10.34 0 10 C0 6.7 0 3.4 0 0 Z " fill="#045FAC" transform="translate(192,156)"/>
<path d="M0 0 C0.99 0.33 1.98 0.66 3 1 C3.75195312 2.77832031 3.75195312 2.77832031 4.28125 5.078125 C4.48363281 5.90957031 4.68601563 6.74101563 4.89453125 7.59765625 C5.09433594 8.47292969 5.29414063 9.34820312 5.5 10.25 C6.78018167 15.75891079 8.01753826 20.15244952 11 25 C11.51171875 27.89453125 11.51171875 27.89453125 11.6875 30.8125 C11.78611328 32.27623047 11.78611328 32.27623047 11.88671875 33.76953125 C11.92410156 34.50558594 11.96148437 35.24164063 12 36 C9.85167974 32.77751962 8.84402666 29.92035433 7.6171875 26.25 C7.39805695 25.59547852 7.17892639 24.94095703 6.95315552 24.26660156 C6.49211002 22.88550265 6.03332738 21.50364654 5.57666016 20.12109375 C4.87682324 18.0055116 4.16743992 15.89330234 3.45703125 13.78125 C3.00983932 12.43769203 2.56320571 11.09394806 2.1171875 9.75 C1.71097168 8.52796875 1.30475586 7.3059375 0.88623047 6.046875 C0 3 0 3 0 0 Z " fill="#D8F6FC" transform="translate(241,105)"/>
<path d="M0 0 C3.09503494 1.54751747 3.28777638 4.17451391 4.35742188 7.33984375 C4.63134766 8.17644531 4.90527344 9.01304687 5.1875 9.875 C5.47302734 10.70386719 5.75855469 11.53273437 6.05273438 12.38671875 C6.31763672 13.18464844 6.58253906 13.98257813 6.85546875 14.8046875 C7.09934326 15.53671387 7.34321777 16.26874023 7.59448242 17.02294922 C8 19 8 19 7 22 C6.01 21.01 5.02 20.02 4 19 C4.33 19.99 4.66 20.98 5 22 C4.34 22 3.68 22 3 22 C0.872 15.616 0.872 15.616 1.5 12.59375 C2.07241798 9.62433174 1.7276731 7.6220872 1.0625 4.6875 C0.86785156 3.80449219 0.67320312 2.92148438 0.47265625 2.01171875 C0.23869141 1.01591797 0.23869141 1.01591797 0 0 Z " fill="#055EAA" transform="translate(183,130)"/>
<path d="M0 0 C0.99 0.33 1.98 0.66 3 1 C3 2.98 3 4.96 3 7 C3.66 7 4.32 7 5 7 C4.67 8.32 4.34 9.64 4 11 C5.65 10.67 7.3 10.34 9 10 C9.33 11.32 9.66 12.64 10 14 C7.8125 14.8125 7.8125 14.8125 5 15 C1.40518566 12.38558957 0.17284031 10.7160527 -0.875 6.375 C-1 3 -1 3 0 0 Z " fill="#1B67A5" transform="translate(70,170)"/>
<path d="M0 0 C7.26 0 14.52 0 22 0 C22 0.33 22 0.66 22 1 C20.35 1 18.7 1 17 1 C17 1.66 17 2.32 17 3 C11.72 3 6.44 3 1 3 C0.67 2.01 0.34 1.02 0 0 Z M-6 1 C-4.02 1 -2.04 1 0 1 C-0.33 1.66 -0.66 2.32 -1 3 C-2.65 2.67 -4.3 2.34 -6 2 C-6 1.67 -6 1.34 -6 1 Z " fill="#39C4EF" transform="translate(159,3)"/>
<path d="M0 0 C3.114074 3.50333325 4.23639311 7.3980282 5.5 11.8125 C6.69612352 15.92176306 7.90462222 19.91286681 9.65625 23.82421875 C11 27 11 27 11 30 C10.34 30 9.68 30 9 30 C7.48990237 25.75351978 5.99368057 21.50227982 4.5 17.25 C4.07074219 16.0434375 3.64148438 14.836875 3.19921875 13.59375 C2.79316406 12.43359375 2.38710937 11.2734375 1.96875 10.078125 C1.40317383 8.47565918 1.40317383 8.47565918 0.82617188 6.84082031 C0 4 0 4 0 0 Z " fill="#4CB1D3" transform="translate(220,48)"/>
<path d="M0 0 C-0.57618751 5.14595054 -1.74743278 9.55078055 -3.5625 14.4375 C-4.01753906 15.67371094 -4.47257813 16.90992188 -4.94140625 18.18359375 C-5.29074219 19.11300781 -5.64007813 20.04242188 -6 21 C-6.98095401 17.87320908 -7.00135612 17.00449214 -6 13.6875 C-4.91032448 9.66932153 -5.17559956 7.03956215 -6 3 C-2.25 0 -2.25 0 0 0 Z " fill="#124277" transform="translate(166,77)"/>
<path d="M0 0 C4.62 0 9.24 0 14 0 C14.33 2.64 14.66 5.28 15 8 C11.6496302 7.42235003 10.31766228 6.41423154 8 4 C6.06669397 2.90833725 6.06669397 2.90833725 4 2 C2.68 1.34 1.36 0.68 0 0 Z " fill="#105C9C" transform="translate(168,121)"/>
<path d="M0 0 C2.15364676 3.23047014 3.25941207 6.40875283 4.4375 10.0625 C4.65559326 10.72773682 4.87368652 11.39297363 5.09838867 12.07836914 C6.81964337 17.35939012 8.45581121 22.66438832 10 28 C9.34 28 8.68 28 8 28 C7.75765625 27.32195313 7.5153125 26.64390625 7.265625 25.9453125 C6.76289063 24.54925781 6.76289063 24.54925781 6.25 23.125 C5.8890625 22.12210938 5.528125 21.11921875 5.15625 20.0859375 C4.09949779 17.26555154 2.94123675 14.51537102 1.75 11.75 C0.04510622 7.58100192 -0.38882519 4.47148974 0 0 Z " fill="#4EB9D7" transform="translate(207,8)"/>
<path d="M0 0 C0.66 0 1.32 0 2 0 C3.34612697 3.72467248 4.67462271 7.45539875 6 11.1875 C6.3815625 12.24259766 6.763125 13.29769531 7.15625 14.38476562 C7.5171875 15.40634766 7.878125 16.42792969 8.25 17.48046875 C8.58515625 18.41785889 8.9203125 19.35524902 9.265625 20.32104492 C10.00366501 23.01336973 10.14089056 25.22401569 10 28 C7.24255598 25.24255598 6.63392254 22.02434007 5.5625 18.375 C3.54763223 11.69227135 3.54763223 11.69227135 1.1875 5.125 C0 2 0 2 0 0 Z " fill="#D3F7FD" transform="translate(226,62)"/>
<path d="M0 0 C0.33 0 0.66 0 1 0 C1.38281385 6.12502159 1.11481215 11.57232361 -2 17 C-3.29562535 18.37000384 -4.62330749 19.71148408 -6 21 C-4.29977612 13.87352969 -2.42080258 6.9165788 0 0 Z " fill="#D5ECF6" transform="translate(139,157)"/>
<path d="M0 0 C1.65 0 3.3 0 5 0 C4.36068868 4.95466276 2.6529206 9.76754444 0 14 C-2.75 15.0625 -2.75 15.0625 -5 15 C-4.35546875 14.63261719 -3.7109375 14.26523438 -3.046875 13.88671875 C-0.24445365 11.30357082 -0.41106993 9.55737589 -0.25 5.8125 C-0.19328125 4.72582031 -0.1365625 3.63914063 -0.078125 2.51953125 C-0.05234375 1.68808594 -0.0265625 0.85664063 0 0 Z " fill="#0965B5" transform="translate(129,168)"/>
<path d="M0 0 C3 3.625 3 3.625 3 7 C-6.57 7 -16.14 7 -26 7 C-25.67 5.35 -25.34 3.7 -25 2 C-24.67 3.32 -24.34 4.64 -24 6 C-16.08 6 -8.16 6 0 6 C0 4.02 0 2.04 0 0 Z " fill="#D3F7FB" transform="translate(178,114)"/>
<path d="M0 0 C1.32 0.33 2.64 0.66 4 1 C3.649375 1.78375 3.29875 2.5675 2.9375 3.375 C2.628125 4.24125 2.31875 5.1075 2 6 C2.33 6.66 2.66 7.32 3 8 C2.67 8.66 2.34 9.32 2 10 C1.34 10 0.68 10 0 10 C0 11.32 0 12.64 0 14 C-0.66 14 -1.32 14 -2 14 C-3.81975482 8.87160006 -1.8599099 4.82315618 0 0 Z " fill="#21568B" transform="translate(116,34)"/>
<path d="M0 0 C1.9609375 0.62109375 1.9609375 0.62109375 4 2 C4.5390625 4.78515625 4.5390625 4.78515625 4.625 8.0625 C4.68627971 10.04466308 4.7966335 12.027345 5 14 C5.66 14.33 6.32 14.66 7 15 C7 16.65 7 18.3 7 20 C6.34 20 5.68 20 5 20 C4.1572257 17.60712296 3.32562998 15.21128981 2.5 12.8125 C2.26152344 12.13896484 2.02304688 11.46542969 1.77734375 10.77148438 C0.51272408 7.06795533 -0.30451221 3.92059464 0 0 Z " fill="#3FACE4" transform="translate(161,59)"/>
<path d="M0 0 C3 2 3 2 3.546875 4.0234375 C3.64742187 5.18746094 3.64742187 5.18746094 3.75 6.375 C3.82734375 7.14585938 3.9046875 7.91671875 3.984375 8.7109375 C3.99997875 10.9968866 3.65703398 12.81984178 3 15 C2.01 14.34 1.02 13.68 0 13 C-0.29296875 9.9609375 -0.29296875 9.9609375 -0.1875 6.375 C-0.16042969 5.18648437 -0.13335937 3.99796875 -0.10546875 2.7734375 C-0.07066406 1.85820312 -0.03585938 0.94296875 0 0 Z " fill="#094886" transform="translate(146,22)"/>
<path d="M0 0 C0.66 0 1.32 0 2 0 C1.29382173 2.39900276 0.57888722 4.7948056 -0.1484375 7.1875 C-0.68955339 8.97467175 -1.21719518 10.76602172 -1.7265625 12.5625 C-3.51735793 18.54493748 -3.51735793 18.54493748 -6.1875 21.0625 C-7.0846875 21.5265625 -7.0846875 21.5265625 -8 22 C-7.54554036 20.58208592 -7.08625056 19.16571954 -6.625 17.75 C-6.24214844 16.56664062 -6.24214844 16.56664062 -5.8515625 15.359375 C-5 13 -5 13 -3.9375 10.90625 C-2.67711045 8.34345791 -2.38351515 5.81244445 -2 3 C-1.34 3 -0.68 3 0 3 C0 2.01 0 1.02 0 0 Z " fill="#165490" transform="translate(136,162)"/>
<path d="M0 0 C1.04423719 3.39377086 1 6.46829831 1 10 C1.43941523 12.26566343 1.43941523 12.26566343 2 14 C-0.97 16.475 -0.97 16.475 -4 19 C-3.71632132 16.76980273 -3.42272612 14.54086546 -3.125 12.3125 C-2.96257812 11.07113281 -2.80015625 9.82976562 -2.6328125 8.55078125 C-2.07521631 5.42204705 -1.30991877 2.87851898 0 0 Z " fill="#17538D" transform="translate(109,56)"/>
<path d="M0 0 C6.10885238 4.07256825 7.5129158 13.12223557 9 20 C9.1875 23.6875 9.1875 23.6875 9 26 C7.60008362 23.3198697 6.47815493 20.68159151 5.52734375 17.8125 C5.26759766 17.03132813 5.00785156 16.25015625 4.74023438 15.4453125 C4.47533203 14.63835938 4.21042969 13.83140625 3.9375 13 C3.66873047 12.19304688 3.39996094 11.38609375 3.12304688 10.5546875 C1.96498151 7.0544999 0.85904126 3.58731601 0 0 Z " fill="#CCF4FB" transform="translate(212,22)"/>
<path d="M0 0 C2 2 2 2 2.3125 5.9375 C2.25612142 8.76155426 2.23113287 9.69182284 0.5 12 C0.005 12.33 -0.49 12.66 -1 13 C-1.99 12.67 -2.98 12.34 -4 12 C-4 9 -4 9 -3 7 C-2.34 7 -1.68 7 -1 7 C-0.67 4.69 -0.34 2.38 0 0 Z " fill="#2697E2" transform="translate(260,170)"/>
<path d="M0 0 C2.7710688 2.34591852 3.52059284 4.14776201 4.1875 7.6875 C4.34605469 8.49574219 4.50460938 9.30398437 4.66796875 10.13671875 C4.77753906 10.75160156 4.88710937 11.36648437 5 12 C4.34 11.67 3.68 11.34 3 11 C3 10.34 3 9.68 3 9 C2.01 9.33 1.02 9.66 0 10 C-1.125 2.25 -1.125 2.25 0 0 Z " fill="#054483" transform="translate(155,49)"/>
<path d="M0 0 C3.18559952 1.39633107 5.23943845 3.04557493 7.625 5.5625 C10.04521959 8.14015389 10.04521959 8.14015389 13 10 C13 10.66 13 11.32 13 12 C14.32 12.66 15.64 13.32 17 14 C16.34 14.66 15.68 15.32 15 16 C12.49599357 13.5248518 9.99748094 11.04423106 7.5 8.5625 C6.78457031 7.85544922 6.06914062 7.14839844 5.33203125 6.41992188 C4.65527344 5.74638672 3.97851562 5.07285156 3.28125 4.37890625 C2.65283203 3.7557251 2.02441406 3.13254395 1.37695312 2.49047852 C0 1 0 1 0 0 Z " fill="#1666A6" transform="translate(148,149)"/>
<path d="M0 0 C0.66 0 1.32 0 2 0 C2.67528223 1.57967807 3.33989694 3.16391903 4 4.75 C4.37125 5.63171875 4.7425 6.5134375 5.125 7.421875 C6 10 6 10 6 14 C5.01 14.495 5.01 14.495 4 15 C3.32779649 13.06441401 2.66241923 11.12645628 2 9.1875 C1.62875 8.10855469 1.2575 7.02960937 0.875 5.91796875 C0 3 0 3 0 0 Z " fill="#42B8E9" transform="translate(152,33)"/>
<path d="M0 0 C0.99 0.99 1.98 1.98 3 3 C2.01 4.485 2.01 4.485 1 6 C0.29835358 7.98799818 -0.37372872 9.98698517 -1 12 C-1.33 12 -1.66 12 -2 12 C-2.33 9.03 -2.66 6.06 -3 3 C-2.34 3 -1.68 3 -1 3 C-0.67 2.01 -0.34 1.02 0 0 Z " fill="#065EAF" transform="translate(140,143)"/>
<path d="M0 0 C2.88437779 1.29299694 4.87219421 2.65941363 7 5 C6.21625 5.12375 5.4325 5.2475 4.625 5.375 C1.85942178 5.79117993 1.85942178 5.79117993 0 8 C-0.66 7.67 -1.32 7.34 -2 7 C-1.34 4.69 -0.68 2.38 0 0 Z " fill="#DBF1F7" transform="translate(143,147)"/>
<path d="M0 0 C3.59458734 4.79278312 5 8.01716477 5 14 C3.68 13.67 2.36 13.34 1 13 C0.67 8.71 0.34 4.42 0 0 Z " fill="#044683" transform="translate(160,62)"/>
<path d="M0 0 C3.62174279 3.62174279 4.87956218 9.03284894 5.1875 14.0625 C5.125625 14.701875 5.06375 15.34125 5 16 C3 13 3 13 3 10 C2.34 10 1.68 10 1 10 C-0.1577506 6.52674819 -0.06866652 3.63932552 0 0 Z " fill="#074A85" transform="translate(141,5)"/>
<path d="M0 0 C5.61 0 11.22 0 17 0 C16.67 0.99 16.34 1.98 16 3 C14.02 3 12.04 3 10 3 C10 2.34 10 1.68 10 1 C6.7 1 3.4 1 0 1 C0 0.67 0 0.34 0 0 Z " fill="#3BC3EC" transform="translate(182,3)"/>
<path d="M0 0 C0.66 0 1.32 0 2 0 C2 1.65 2 3.3 2 5 C1.01 5.33 0.02 5.66 -1 6 C-2.21869929 8.50447516 -2.21869929 8.50447516 -3 11 C-3.33 10.34 -3.66 9.68 -4 9 C-3.22265625 6.8359375 -3.22265625 6.8359375 -2.0625 4.375 C-1.68222656 3.55773437 -1.30195312 2.74046875 -0.91015625 1.8984375 C-0.60980469 1.27195312 -0.30945313 0.64546875 0 0 Z " fill="#266095" transform="translate(91,111)"/>
<path d="M0 0 C3.02788635 3.46044155 4.98556464 7.52249221 6 12 C5.578125 14.25 5.578125 14.25 5 16 C0.59225513 5.62642369 0.59225513 5.62642369 0 0 Z " fill="#49A2CC" transform="translate(176,104)"/>
<path d="M0 0 C2.94956528 1.36944102 5.52468811 2.87830409 8 5 C8 5.66 8 6.32 8 7 C9.32 7.66 10.64 8.32 12 9 C11.34 9.66 10.68 10.32 10 11 C8.33035479 9.35718838 6.6643536 7.71067239 5 6.0625 C4.071875 5.14597656 3.14375 4.22945312 2.1875 3.28515625 C0 1 0 1 0 0 Z " fill="#2672B0" transform="translate(168,168)"/>
<path d="M0 0 C0.66 0 1.32 0 2 0 C2.125 3.375 2.125 3.375 2 7 C1.34 7.66 0.68 8.32 0 9 C-1.5625 6.6875 -1.5625 6.6875 -3 4 C-2.67 3.01 -2.34 2.02 -2 1 C-1.67 1.33 -1.34 1.66 -1 2 C-0.67 1.34 -0.34 0.68 0 0 Z " fill="#0A4C8C" transform="translate(157,95)"/>
<path d="M0 0 C1.98 0 3.96 0 6 0 C6.28875 0.639375 6.5775 1.27875 6.875 1.9375 C7.82823451 4.15206079 7.82823451 4.15206079 10 5 C10.33 4.34 10.66 3.68 11 3 C10.67 4.32 10.34 5.64 10 7 C7.5625 6.1875 7.5625 6.1875 5 5 C4.67 4.01 4.34 3.02 4 2 C1.99983534 0.79117904 1.99983534 0.79117904 0 0 Z " fill="#0963B0" transform="translate(172,122)"/>
<path d="M0 0 C1.90389849 2.85584773 2.69462177 4.9311762 3.625 8.1875 C4.01558594 9.53908203 4.01558594 9.53908203 4.4140625 10.91796875 C4.60742188 11.60503906 4.80078125 12.29210938 5 13 C0.02036199 8.18099548 0.02036199 8.18099548 -0.0625 3.375 C-0.041875 2.26125 -0.02125 1.1475 0 0 Z " fill="#56BEDC" transform="translate(207,8)"/>
<path d="M0 0 C0.33 0 0.66 0 1 0 C1.66 2.97 2.32 5.94 3 9 C1.68 9 0.36 9 -1 9 C-1.09765625 2.84765625 -1.09765625 2.84765625 -1 1 C-0.67 0.67 -0.34 0.34 0 0 Z " fill="#299EE5" transform="translate(251,142)"/>
<path d="M0 0 C0.66 0.33 1.32 0.66 2 1 C1.67 1.66 1.34 2.32 1 3 C0.34 3 -0.32 3 -1 3 C-1.2165625 3.928125 -1.2165625 3.928125 -1.4375 4.875 C-2 7 -2 7 -3 9 C-3.66 9 -4.32 9 -5 9 C-4.5206753 4.68607774 -3.2542015 2.83430453 0 0 Z " fill="#254C76" transform="translate(130,2)"/>
<path d="M0 0 C2.31 0 4.62 0 7 0 C5.02 2.97 5.02 2.97 3 6 C2.34 5.67 1.68 5.34 1 5 C0.375 2.4375 0.375 2.4375 0 0 Z " fill="#F0F2F4" transform="translate(124,0)"/>
<path d="M0 0 C1.15866723 4.63466892 0.70010994 7.33260039 0 12 C-0.99 11.67 -1.98 11.34 -3 11 C-2.01 7.37 -1.02 3.74 0 0 Z " fill="#C3D9E8" transform="translate(157,104)"/>
<path d="M0 0 C1.9375 0.3125 1.9375 0.3125 4 1 C4.33 1.99 4.66 2.98 5 4 C5.66 4.33 6.32 4.66 7 5 C6.34 5.66 5.68 6.32 5 7 C4.67 6.34 4.34 5.68 4 5 C1.98330173 3.86649466 1.98330173 3.86649466 0 3 C0 2.01 0 1.02 0 0 Z " fill="#3AC5EF" transform="translate(200,4)"/>
<path d="M0 0 C1 3 1 3 0.0625 5.1875 C-0.4634375 6.0846875 -0.4634375 6.0846875 -1 7 C-2.98 7 -4.96 7 -7 7 C-6.21625 6.401875 -5.4325 5.80375 -4.625 5.1875 C-1.85425677 3.08914751 -1.85425677 3.08914751 0 0 Z " fill="#D3F4FC" transform="translate(263,179)"/>
<path d="M0 0 C0.66 0.33 1.32 0.66 2 1 C1.42655063 3.86724686 1.1385485 4.8614515 -1 7 C-0.67 4.69 -0.34 2.38 0 0 Z M-4 6 C-2.515 6.99 -2.515 6.99 -1 8 C-1.99 9.485 -1.99 9.485 -3 11 C-3.33 9.35 -3.66 7.7 -4 6 Z " fill="#0E65AE" transform="translate(76,159)"/>
<path d="M0 0 C0.33 0 0.66 0 1 0 C1.05422947 1.4370809 1.09289723 2.87475462 1.125 4.3125 C1.14820313 5.11300781 1.17140625 5.91351563 1.1953125 6.73828125 C1 9 1 9 -1 12 C-2.36884358 7.48281619 -1.47075246 4.41225737 0 0 Z " fill="#CCE4F1" transform="translate(139,157)"/>
<path d="M0 0 C2.18975773 3.28463659 2.99806563 6.20696275 4 10 C3.01 9.67 2.02 9.34 1 9 C-0.4783226 6.04335481 -0.06032783 3.25770263 0 0 Z " fill="#DAF6FC" transform="translate(171,93)"/>
<path d="M0 0 C2.09749995 2.35968744 2.96905704 3.54616994 3.1875 6.75 C3.0946875 7.86375 3.0946875 7.86375 3 9 C2.01 9 1.02 9 0 9 C0 6.03 0 3.06 0 0 Z " fill="#074783" transform="translate(152,38)"/>
<path d="M0 0 C1.98 1.65 3.96 3.3 6 5 C5.34 5.66 4.68 6.32 4 7 C2 5.1875 2 5.1875 0 3 C0 2.01 0 1.02 0 0 Z " fill="#DCF2FC" transform="translate(168,169)"/>
<path d="M0 0 C0.99 0.33 1.98 0.66 3 1 C2.34 3.31 1.68 5.62 1 8 C0.34 7.34 -0.32 6.68 -1 6 C-0.625 2.875 -0.625 2.875 0 0 Z " fill="#276AA8" transform="translate(77,150)"/>
<path d="M0 0 C1.9451 2.91765 2.45276317 4.62537285 3 8 C2.01 8.33 1.02 8.66 0 9 C-0.84454356 5.62182575 -1.10844919 3.32534757 0 0 Z " fill="#0A528E" transform="translate(150,30)"/>
<path d="M0 0 C1.32 0.33 2.64 0.66 4 1 C4 1.66 4 2.32 4 3 C5.32 3.66 6.64 4.32 8 5 C7.34 5.66 6.68 6.32 6 7 C4.02 4.69 2.04 2.38 0 0 Z " fill="#2D77B7" transform="translate(157,158)"/>
<path d="M0 0 C3 3.625 3 3.625 3 7 C1.35 7 -0.3 7 -2 7 C-1.34 6.67 -0.68 6.34 0 6 C0 4.02 0 2.04 0 0 Z " fill="#C4EDFB" transform="translate(178,114)"/>
<path d="M0 0 C0.66 0.33 1.32 0.66 2 1 C1.01 3.97 0.02 6.94 -1 10 C-1.66 8.68 -2.32 7.36 -3 6 C-1.625 2.75 -1.625 2.75 0 0 Z " fill="#D1E7F2" transform="translate(94,96)"/>
</svg>
