<svg width="96" height="71" viewBox="0 0 96 71" fill="none" xmlns="http://www.w3.org/2000/svg">
<g id="Layer_1" clip-path="url(#clip0_177_3250)">
<path id="Vector" d="M47.4099 6.74C47.4399 6.56 47.4099 6.3 47.5199 6.21C49.8199 4.18 52.1299 2.16 54.4399 0.15C54.4999 0.1 54.5699 0.08 54.7099 0C55.6799 1.18 56.6899 2.33 57.6299 3.54C61.6499 8.74 64.6899 14.47 66.7299 20.73C68.1499 25.08 69.0599 29.54 69.3499 34.11C69.4499 35.73 69.4699 37.36 69.5399 38.99C69.5599 39.4 69.4099 39.51 69.0099 39.51C66.0899 39.5 63.1799 39.49 60.2599 39.51C59.7699 39.51 59.7099 39.32 59.6899 38.9C59.5899 36.66 59.5999 34.41 59.2799 32.2C58.9299 29.73 58.2599 27.3 57.7299 24.85C57.7099 24.74 57.6299 24.65 57.5799 24.55C57.5199 24.29 57.4899 24.02 57.4099 23.77C55.5999 18.24 52.8599 13.22 49.2099 8.7C48.6499 8.01 47.9999 7.39 47.3999 6.74H47.4099Z" fill="#3EB7E3"/>
<path id="Vector_2" d="M54.4902 38.7399C54.4902 39.3699 54.1902 39.5399 53.5602 39.5299C50.8002 39.4899 48.0402 39.5199 45.2702 39.5199C45.0602 39.5199 44.8602 39.5199 44.5002 39.5199C44.5002 38.3899 44.5402 37.3199 44.5002 36.2499C44.3802 33.4999 43.7902 30.8299 42.9302 28.2199C42.8902 28.0999 42.8102 27.9799 42.7502 27.8699C42.6902 27.6499 42.6602 27.4199 42.5802 27.2099C41.4202 24.0899 39.8102 21.2199 37.7502 18.6099C37.2002 17.9099 36.5702 17.2799 35.9702 16.6199C36.0302 16.4699 36.0402 16.2799 36.1502 16.1799C38.4802 14.1199 40.8302 12.0599 43.2502 9.93994C43.9502 10.7599 44.6902 11.5299 45.3002 12.3899C46.6202 14.2599 47.8602 16.1899 49.1402 18.0899C49.2102 18.1899 49.3102 18.2799 49.4002 18.3699C49.6902 18.9899 49.9602 19.6199 50.2602 20.2299C52.9402 25.8999 54.3402 31.8599 54.4002 38.1299C54.4002 38.3299 54.4702 38.5299 54.5002 38.7299L54.4902 38.7399Z" fill="#3DB6E3"/>
<path id="Vector_3" d="M15.14 52.7601C14.71 53.6001 14.28 54.4401 13.85 55.2801C12.84 57.2601 11.83 59.2401 10.84 61.2301C10.65 61.6101 10.42 61.7701 10 61.7401C9.43 61.7101 8.85 61.7101 8.27 61.7401C7.92 61.7501 7.72 61.6401 7.55 61.3101C6.29 58.8101 5.01 56.3301 3.74 53.8401C3.57 53.5101 3.39 53.1801 3.22 52.8601L3.08 52.9001C3.08 53.1001 3.08 53.3001 3.08 53.5001C3.08 56.9301 3.07 60.3601 3.09 63.8001C3.09 64.3201 2.93 64.4701 2.44 64.4401C1.81 64.4001 1.17 64.4101 0.54 64.4401C0.15 64.4601 0 64.3401 0 63.9201C0.01 59.0101 0 54.1001 0.01 49.2001C0.01 48.4701 0.03 47.7401 0.01 47.0101C0.01 46.6101 0.16 46.4501 0.55 46.4601C1.26 46.4701 1.97 46.4301 2.68 46.4801C2.91 46.5001 3.22 46.6901 3.32 46.9001C4.78 49.7901 6.22 52.6901 7.66 55.5901C8.14 56.5401 8.61 57.5001 9.15 58.5601C9.79 57.2501 10.38 56.0601 10.96 54.8701C12.25 52.2201 13.55 49.5701 14.83 46.9101C14.98 46.5901 15.17 46.4501 15.53 46.4601C16.3 46.4801 17.07 46.4801 17.83 46.4601C18.21 46.4601 18.38 46.5601 18.38 46.9801C18.37 52.6401 18.37 58.2901 18.38 63.9501C18.38 64.3301 18.25 64.4601 17.88 64.4401C17.21 64.4201 16.54 64.4101 15.87 64.4401C15.38 64.4701 15.24 64.2901 15.24 63.8101C15.26 60.3401 15.24 56.8701 15.24 53.4001C15.24 53.2001 15.24 53.0001 15.24 52.8001C15.2 52.8001 15.16 52.7801 15.12 52.7801L15.14 52.7601Z" fill="#01122A"/>
<path id="Vector_4" d="M39.3001 38.9601C39.2901 39.3501 39.1201 39.5101 38.7001 39.5101C35.7801 39.4901 32.8701 39.5001 29.9501 39.5101C29.5701 39.5101 29.4001 39.4201 29.4101 39.0001C29.5401 34.2501 27.9601 30.1401 24.7501 26.6401C24.7001 26.5801 24.6501 26.5201 24.6101 26.4601C24.5901 26.4301 24.5901 26.3901 24.5601 26.3001C26.9601 24.2001 29.3801 22.0801 31.9001 19.8701C32.8501 21.1001 33.7701 22.3001 34.6901 23.4901C34.8601 23.7101 35.0501 23.9101 35.2301 24.1301C35.3101 24.3401 35.3701 24.5701 35.4801 24.7601C37.9501 28.9601 39.2001 33.4901 39.2101 38.3701C39.2101 38.5701 39.2701 38.7801 39.3001 38.9801V38.9601Z" fill="#3EB7E3"/>
<path id="Vector_5" d="M79.6902 53.8999C79.7502 53.7299 79.7802 53.6199 79.8202 53.5199C79.9802 53.1199 80.0602 52.4599 80.3202 52.3699C80.8702 52.1799 81.5302 52.2799 82.1402 52.3099C82.2302 52.3099 82.3802 52.5799 82.3802 52.7399C82.4102 53.3899 82.3902 54.0399 82.3902 54.6899C82.3902 57.9699 82.4602 61.2399 82.3802 64.5199C82.2802 68.3599 79.4102 70.8099 75.3602 70.5499C73.9302 70.4599 72.5702 70.1099 71.2802 69.4499C70.8602 69.2299 70.7802 69.0099 71.0102 68.5999C71.3102 68.0699 71.5802 67.5099 71.8402 66.9599C72.0002 66.6199 72.1802 66.5799 72.5102 66.7499C73.8202 67.4099 75.2002 67.7699 76.6802 67.5199C78.3602 67.2299 79.2602 66.1599 79.4102 64.3199C79.4402 63.9799 79.4102 63.6399 79.4102 63.3099C79.3302 63.2999 79.2802 63.2699 79.2602 63.2899C75.9502 66.0699 71.0602 64.6299 69.8702 60.4699C69.1502 57.9599 69.4902 55.5799 71.3902 53.6399C73.3502 51.6299 76.9802 51.4299 78.9502 53.1599C79.1902 53.3699 79.4002 53.6199 79.6702 53.8999H79.6902ZM79.4102 58.3599C79.4202 56.3499 78.0302 54.9599 75.9602 54.9399C73.9502 54.9199 72.5902 56.2499 72.5702 58.2599C72.5502 60.3399 73.8502 61.7199 75.8602 61.7399C77.9502 61.7699 79.4002 60.3899 79.4102 58.3599Z" fill="#01122A"/>
<path id="Vector_6" d="M38.5801 60.01C39.2401 57.63 39.9201 55.26 40.5601 52.88C40.6801 52.43 40.8501 52.23 41.3301 52.28C41.7701 52.32 42.2201 52.33 42.6501 52.28C43.2201 52.21 43.4201 52.48 43.5401 52.98C44.1001 55.21 44.7001 57.43 45.2801 59.65C45.3401 59.89 45.4101 60.12 45.5901 60.36C45.7901 59.43 46.0001 58.5 46.2001 57.57C46.5401 56 46.8901 54.43 47.2001 52.85C47.2801 52.43 47.4201 52.26 47.8701 52.28C48.7401 52.31 49.6201 52.28 50.5901 52.28C50.4801 52.72 50.4001 53.07 50.3101 53.41C49.3301 56.89 48.3301 60.37 47.3701 63.86C47.2501 64.29 47.0601 64.45 46.6101 64.43C45.9401 64.4 45.2701 64.4 44.6001 64.43C44.1601 64.45 44.0001 64.27 43.9001 63.87C43.3201 61.59 42.7201 59.31 42.1301 57.03C42.1001 56.92 42.0601 56.82 41.9801 56.61C41.7601 57.42 41.5601 58.13 41.3701 58.85C40.9301 60.53 40.4801 62.22 40.0501 63.91C39.9601 64.29 39.8001 64.46 39.3901 64.44C38.6801 64.41 37.9701 64.46 37.2601 64.41C37.0701 64.4 36.7901 64.2 36.7401 64.04C35.6401 60.23 34.5601 56.42 33.4801 52.6C33.4601 52.53 33.4801 52.46 33.4801 52.3C34.4901 52.3 35.4801 52.28 36.4601 52.32C36.5701 52.32 36.7201 52.61 36.7601 52.79C37.3101 55.1 37.8401 57.41 38.3701 59.73C38.3901 59.82 38.4201 59.91 38.4501 59.99C38.4901 59.99 38.5201 60.01 38.5601 60.01H38.5801Z" fill="#01122A"/>
<path id="Vector_7" d="M54.4899 38.74C54.4499 38.54 54.3899 38.34 54.3899 38.14C54.3299 31.87 52.9299 25.9 50.2499 20.24C49.9599 19.62 49.6799 19 49.3899 18.38C49.1699 14.98 48.6699 11.62 47.8299 8.31001C47.6999 7.79001 47.5499 7.28001 47.4199 6.76001C48.0299 7.41001 48.6699 8.03001 49.2299 8.72001C52.8899 13.24 55.6299 18.26 57.4299 23.79C57.5099 24.04 57.5499 24.31 57.5999 24.57C57.1599 28.23 56.5299 31.87 55.5299 35.42C55.2199 36.54 54.8399 37.64 54.4899 38.75V38.74Z" fill="#02637D"/>
<path id="Vector_8" d="M29.5102 62.8701C28.7302 63.8101 27.8302 64.3901 26.7202 64.6001C23.1502 65.2801 20.0902 63.0801 19.6102 59.4801C19.3802 57.7601 19.6102 56.1301 20.5402 54.6201C22.2502 51.8201 27.1702 50.9601 29.5102 53.8101C29.6402 53.4001 29.7102 53.0101 29.8802 52.6701C29.9702 52.4901 30.2002 52.3001 30.3902 52.2801C30.9202 52.2301 31.4602 52.2801 32.0002 52.2601C32.3302 52.2601 32.4202 52.3901 32.4202 52.7101C32.4202 56.4701 32.4202 60.2201 32.4202 63.9801C32.4202 64.3501 32.2602 64.4401 31.9402 64.4301C31.4602 64.4101 30.9802 64.3901 30.5002 64.4301C30.0602 64.4701 29.8702 64.2801 29.7902 63.8801C29.7202 63.5701 29.6302 63.2701 29.5202 62.8701H29.5102ZM25.7902 61.7601C27.8302 61.7701 29.2602 60.3701 29.2702 58.3701C29.2702 56.4001 27.8802 55.0201 25.8502 54.9901C23.8402 54.9601 22.4602 56.3401 22.4602 58.3701C22.4602 60.3601 23.8302 61.7501 25.8002 61.7601H25.7902Z" fill="#01122A"/>
<path id="Vector_9" d="M59.9698 53.7699C61.6698 51.9499 63.7898 51.4499 65.8098 52.4199C67.3698 53.1799 68.1298 54.5299 68.2798 56.1799C68.4198 57.6599 68.3698 59.1599 68.3898 60.6599C68.3998 61.7099 68.3698 62.7699 68.3998 63.8199C68.4098 64.3099 68.2398 64.4599 67.7698 64.4299C67.2198 64.3999 66.6598 64.3899 66.0998 64.4299C65.5798 64.4699 65.3998 64.3099 65.4098 63.7599C65.4398 61.8599 65.4298 59.9699 65.4098 58.0699C65.4098 57.5999 65.3498 57.1099 65.2198 56.6599C64.9798 55.7899 64.4298 55.1799 63.4898 55.0199C62.5098 54.8599 61.6598 55.0999 61.0098 55.8699C60.3198 56.6899 60.1198 57.6799 60.1098 58.7199C60.0998 60.4199 60.0898 62.1299 60.1098 63.8299C60.1098 64.2899 59.9698 64.4499 59.5198 64.4199C58.8898 64.3899 58.2498 64.3999 57.6198 64.4199C57.2598 64.4299 57.0998 64.3199 57.1098 63.9299C57.1098 60.2099 57.1098 56.4999 57.1098 52.7799C57.1098 52.4199 57.2198 52.2299 57.5998 52.2699C57.6898 52.2799 57.7898 52.2699 57.8898 52.2699C58.4098 52.2799 59.0498 52.1099 59.3998 52.3599C59.7398 52.5899 59.7698 53.2599 59.9498 53.7599L59.9698 53.7699Z" fill="#01122A"/>
<path id="Vector_10" d="M95.14 64.4199C94.4 64.4199 93.74 64.4499 93.1 64.3999C92.94 64.3899 92.72 64.1699 92.65 63.9999C92.53 63.6699 92.49 63.3099 92.42 62.9599C92.36 62.9299 92.3 62.8899 92.24 62.8599C92.11 63.0499 92 63.2599 91.84 63.4199C89.87 65.3499 86.37 65.1499 84.8 63.0099C84.02 61.9499 83.79 60.7099 83.78 59.4199C83.77 57.2399 83.78 55.0499 83.77 52.8699C83.77 52.4199 83.9 52.2599 84.36 52.2799C84.95 52.3199 85.55 52.3199 86.14 52.2799C86.65 52.2499 86.75 52.4599 86.74 52.9199C86.72 54.8399 86.73 56.7499 86.74 58.6699C86.74 59.0499 86.77 59.4399 86.84 59.8099C87.01 60.7499 87.43 61.5299 88.43 61.7999C89.52 62.0999 90.49 61.8799 91.25 61.0099C92.01 60.1399 92.23 59.0699 92.24 57.9599C92.26 56.2499 92.24 54.5499 92.22 52.8399C92.22 52.4099 92.35 52.2599 92.78 52.2899C93.35 52.3199 93.93 52.3299 94.5 52.2899C95 52.2499 95.15 52.3999 95.15 52.9199C95.13 56.3899 95.14 59.8599 95.14 63.3299V64.4399V64.4199Z" fill="#01122A"/>
<path id="Vector_11" d="M39.3 38.9601C39.27 38.7601 39.21 38.5501 39.21 38.3501C39.2 33.4801 37.94 28.9401 35.48 24.7401C35.37 24.5501 35.31 24.3201 35.23 24.1101C35.48 21.6101 35.72 19.1101 35.97 16.6101C36.57 17.2701 37.2 17.9001 37.75 18.6001C39.81 21.2101 41.42 24.0801 42.58 27.2001C42.66 27.4101 42.7 27.6401 42.75 27.8601C42.07 31.1001 41.18 34.2901 39.98 37.3801C39.77 37.9101 39.53 38.4301 39.3 38.9601Z" fill="#02637D"/>
<path id="Vector_12" d="M51.63 58.34C51.63 56.56 51.66 54.78 51.62 53C51.61 52.4 51.8 52.23 52.37 52.28C52.96 52.33 53.56 52.31 54.15 52.28C54.51 52.27 54.61 52.41 54.61 52.75C54.61 56.49 54.61 60.22 54.61 63.96C54.61 64.31 54.48 64.43 54.13 64.43C53.48 64.41 52.83 64.4 52.18 64.43C51.74 64.45 51.62 64.28 51.62 63.86C51.64 62.02 51.62 60.18 51.62 58.34H51.63Z" fill="#01122A"/>
<path id="Vector_13" d="M53.1002 50.0699C51.9702 50.0699 51.1902 49.2799 51.1802 48.1599C51.1802 47.0199 51.9902 46.2399 53.1602 46.2599C54.3102 46.2799 55.0502 47.0399 55.0302 48.1999C55.0102 49.3599 54.2702 50.0799 53.1002 50.0699Z" fill="#01122A"/>
</g>
<defs>
<clipPath id="clip0_177_3250">
<rect width="95.16" height="70.57" fill="white"/>
</clipPath>
</defs>
</svg>
