<?xml version="1.0" encoding="UTF-8"?>
<svg version="1.1" xmlns="http://www.w3.org/2000/svg" width="1920" height="602">
<path d="M0 0 C6.93 0 13.86 0 21 0 C24.4208484 8.12451496 27.7189173 16.28984096 30.97314453 24.48217773 C33.45223133 30.69751021 36.05414392 36.84241858 38.7734375 42.95703125 C40.11088823 46.2751017 41.07290164 49.54720846 42 53 C42.29132813 52.29617188 42.58265625 51.59234375 42.8828125 50.8671875 C45.24072149 45.18744445 47.62878168 39.52271273 50.0625 33.875 C52.46456516 28.28240553 54.76629962 22.66141514 57 17 C58.05990745 14.33229665 59.12347563 11.66606343 60.1875 9 C60.44982422 8.34008057 60.71214844 7.68016113 60.98242188 7.00024414 C62.8864974 2.22700519 62.8864974 2.22700519 64 0 C70.6 0 77.2 0 84 0 C84 25.41 84 50.82 84 77 C79.05 77 74.1 77 69 77 C68.67 60.5 68.34 44 68 27 C65.69 32.61 63.38 38.22 61 44 C58.92578125 49.02734375 58.92578125 49.02734375 58.09863281 51.03198242 C57.70949707 51.97521362 57.70949707 51.97521362 57.3125 52.9375 C57.02342773 53.63786377 56.73435547 54.33822754 56.43652344 55.05981445 C54.84440782 58.9244026 53.28123972 62.79826756 51.75 66.6875 C50.34304719 70.23520429 48.77729294 73.6231434 47 77 C43.7 77 40.4 77 37 77 C33.4565784 71.48801085 31.41494414 65.77167217 29.2734375 59.59375 C27.39518221 54.29315226 25.20373374 49.17621181 23 44 C19.04 34.595 19.04 34.595 15 25 C15 42.16 15 59.32 15 77 C10.05 77 5.1 77 0 77 C0 51.59 0 26.18 0 0 Z " fill="#727272" transform="translate(1061,255)"/>
<path d="M0 0 C20.46 0 40.92 0 62 0 C62 20.13 62 40.26 62 61 C41.54 61 21.08 61 0 61 C0 40.87 0 20.74 0 0 Z " fill="#FEB800" transform="translate(964,296)"/>
<path d="M0 0 C20.46 0 40.92 0 62 0 C62 20.13 62 40.26 62 61 C41.54 61 21.08 61 0 61 C0 40.87 0 20.74 0 0 Z " fill="#00A3EE" transform="translate(898,296)"/>
<path d="M0 0 C20.46 0 40.92 0 62 0 C62 20.13 62 40.26 62 61 C41.54 61 21.08 61 0 61 C0 40.87 0 20.74 0 0 Z " fill="#7EB900" transform="translate(964,230)"/>
<path d="M0 0 C20.46 0 40.92 0 62 0 C62 20.13 62 40.26 62 61 C41.54 61 21.08 61 0 61 C0 40.87 0 20.74 0 0 Z " fill="#F14F21" transform="translate(898,230)"/>
<path d="M0 0 C5.61 0 11.22 0 17 0 C19.68514264 10.44222138 22.11315028 20.90468395 24.33666992 31.45532227 C24.53881104 32.40592529 24.74095215 33.35652832 24.94921875 34.3359375 C25.12799561 35.18720215 25.30677246 36.0384668 25.4909668 36.91552734 C25.92847786 39.04217326 25.92847786 39.04217326 27 41 C30.3 27.47 33.6 13.94 37 0 C43.27 0 49.54 0 56 0 C58.42974045 7.28922136 60.43601223 14.40083171 62.21704102 21.84936523 C62.6911171 23.82759348 63.17430742 25.80345043 63.65820312 27.77929688 C63.96048828 29.03419922 64.26277344 30.28910156 64.57421875 31.58203125 C64.98546997 33.28709839 64.98546997 33.28709839 65.4050293 35.02661133 C66 38 66 38 66 42 C66.66 42 67.32 42 68 42 C68.13728516 40.03933594 68.13728516 40.03933594 68.27734375 38.0390625 C69.04508921 30.3616079 70.86649928 22.8881247 72.5625 15.375 C72.8957137 13.87902452 73.22840007 12.38293147 73.56054688 10.88671875 C74.36666459 7.25617362 75.18352779 3.62829164 76 0 C81.61 0 87.22 0 93 0 C91.70061901 7.64475009 90.0419304 15.06234123 87.99609375 22.5390625 C87.71274673 23.58653656 87.42939972 24.63401062 87.13746643 25.71322632 C86.54379967 27.90365442 85.94790355 30.09347944 85.34985352 32.28271484 C84.43092293 35.64909423 83.52065581 39.0177342 82.61132812 42.38671875 C82.0317579 44.52097132 81.45169776 46.65509093 80.87109375 48.7890625 C80.59817001 49.79933502 80.32524628 50.80960754 80.04405212 51.85049438 C79.79031326 52.77591034 79.5365744 53.70132629 79.27514648 54.65478516 C79.0524559 55.47210114 78.82976532 56.28941711 78.60032654 57.13150024 C78 59 78 59 77 60 C75.58429877 60.08651611 74.164405 60.10704904 72.74609375 60.09765625 C71.89208984 60.09443359 71.03808594 60.09121094 70.15820312 60.08789062 C68.81145508 60.07532227 68.81145508 60.07532227 67.4375 60.0625 C66.53580078 60.05798828 65.63410156 60.05347656 64.70507812 60.04882812 C62.46998686 60.03700225 60.23502563 60.0205222 58 60 C54.02626989 46.07436173 50.45733374 32.06209177 47 18 C43.84573547 29.1794951 40.82403971 40.38487621 37.96826172 51.64477539 C37.7260791 52.58828857 37.48389648 53.53180176 37.234375 54.50390625 C37.02006836 55.34767822 36.80576172 56.1914502 36.58496094 57.06079102 C36 59 36 59 35 60 C33.58429877 60.08651611 32.164405 60.10704904 30.74609375 60.09765625 C29.89208984 60.09443359 29.03808594 60.09121094 28.15820312 60.08789062 C27.26037109 60.07951172 26.36253906 60.07113281 25.4375 60.0625 C24.53580078 60.05798828 23.63410156 60.05347656 22.70507812 60.04882812 C20.46998686 60.03700225 18.23502563 60.0205222 16 60 C10.41893084 40.06023965 5.11466018 20.06415895 0 0 Z " fill="#737373" transform="translate(355,272)"/>
<path d="M0 0 C5.61 0 11.22 0 17 0 C17.33 9.9 17.66 19.8 18 30 C20.64 28.35 23.28 26.7 26 25 C32.92425357 22.69191548 42.36465921 22.85546534 49.125 25.6875 C56.63467236 29.72359732 61.07823649 36.42437259 64.3125 44.125 C66.27455625 55.18386248 65.80905508 65.78032997 59.45703125 75.31640625 C54.81269792 81.08728268 49.26826371 84.53001408 42 86 C32.85045671 86.87893251 26.32560404 85.1779948 18.9375 79.75 C18.298125 79.1725 17.65875 78.595 17 78 C16.34 80.31 15.68 82.62 15 85 C10.05 85 5.1 85 0 85 C0 56.95 0 28.9 0 0 Z M19.6875 44.5625 C16.51940745 49.13863368 16.38112565 53.61317815 17 59 C18.37992986 63.4946287 20.25687841 66.35596129 23.8125 69.4375 C28.78362615 71.87432654 32.80441119 72.61017819 38.125 71 C42.49496062 69.15867679 44.90146404 66.18806534 47 62 C48.61018085 56.66369551 48.66871451 51.91446448 46.3125 46.8125 C44.05618336 42.66922816 41.23077385 40.11538693 37 38 C29.33332906 37.06466615 24.94876982 38.73244425 19.6875 44.5625 Z " fill="#737373" transform="translate(725,247)"/>
<path d="M0 0 C5.61 0 11.22 0 17 0 C17 28.05 17 56.1 17 85 C12.05 85 7.1 85 2 85 C1.505 81.535 1.505 81.535 1 78 C-0.12148438 78.74056641 -0.12148438 78.74056641 -1.265625 79.49609375 C-2.25046875 80.13675781 -3.2353125 80.77742188 -4.25 81.4375 C-5.22453125 82.07558594 -6.1990625 82.71367187 -7.203125 83.37109375 C-13.37736455 86.96698466 -20.50808105 86.7846461 -27.4375 85.57421875 C-34.39861433 83.60432008 -39.71721976 79.6309234 -43.57421875 73.49609375 C-48.4912291 64.04247214 -49.63537931 53.99041153 -46.75 43.625 C-44.13514315 36.06963021 -39.56312347 30.53112439 -33 26 C-25.55596393 22.87931079 -16.48588754 22.46039909 -8.8359375 25.0859375 C-3.00897989 27.99102011 -3.00897989 27.99102011 -1 30 C-0.67 20.1 -0.34 10.2 0 0 Z M-27.25 43.3125 C-30.63733079 48.51447228 -31.41786691 52.69424326 -30.5390625 58.75390625 C-29.42739029 63.38587377 -27.44225412 66.83060476 -23.6875 69.875 C-18.87505189 71.88951316 -14.87298471 72.5281957 -9.875 70.9375 C-5.63320938 69.1501824 -3.58843683 66.76499903 -1 63 C0.91040692 57.26877925 0.88402033 51.19762964 -1.5625 45.625 C-3.86643588 41.63151114 -6.61185076 39.41524489 -11 38 C-17.56400725 36.89541851 -22.62359722 38.55758604 -27.25 43.3125 Z " fill="#737373" transform="translate(674,247)"/>
<path d="M0 0 C0 4.29 0 8.58 0 13 C-2.79947917 12.93489583 -5.59895833 12.86979167 -8.3984375 12.8046875 C-11.16262173 12.72783152 -11.16262173 12.72783152 -13 15 C-13.42355123 17.13592982 -13.42355123 17.13592982 -13.5625 19.5 C-13.90540541 23.81081081 -13.90540541 23.81081081 -15 26 C-9.06 26 -3.12 26 3 26 C3 22.04 3 18.08 3 14 C13.5 10 13.5 10 18 10 C18 15.28 18 20.56 18 26 C21.96 26 25.92 26 30 26 C30 29.96 30 33.92 30 38 C26.04 38 22.08 38 18 38 C18.11815307 42.23603463 18.24239432 46.47183326 18.37231445 50.70751953 C18.41566231 52.1488762 18.45733752 53.59028418 18.49731445 55.03173828 C18.55502088 57.10204541 18.61871371 59.17209432 18.68359375 61.2421875 C18.73858032 63.11173096 18.73858032 63.11173096 18.79467773 65.01904297 C18.80289479 67.92636942 18.80289479 67.92636942 20 70 C25.08303686 70.11320856 25.08303686 70.11320856 30 69 C30 73.29 30 77.58 30 82 C26.30901591 82.92274602 23.34213803 83.19756572 19.5625 83.25 C18.45003906 83.27578125 17.33757812 83.3015625 16.19140625 83.328125 C11.99596457 82.89676992 9.57335506 81.2237206 6.3125 78.6875 C2.77031896 74.13326723 2.7220395 68.726762 2.8046875 63.1953125 C2.8075174 62.4713327 2.81034729 61.74735291 2.81326294 61.00143433 C2.82437913 58.7091151 2.84946688 56.41719937 2.875 54.125 C2.8850409 52.56250568 2.89416481 51.00000518 2.90234375 49.4375 C2.92258142 45.62472282 2.9617444 41.81280835 3 38 C-2.94 38 -8.88 38 -15 38 C-14.67 38.66 -14.34 39.32 -14 40 C-13.91097507 41.35845193 -13.88239868 42.72115974 -13.88647461 44.08251953 C-13.88655014 44.92324005 -13.88662567 45.76396057 -13.88670349 46.63015747 C-13.89444542 47.99272171 -13.89444542 47.99272171 -13.90234375 49.3828125 C-13.9037587 50.31221649 -13.90517365 51.24162048 -13.90663147 52.19918823 C-13.91223947 55.17449124 -13.92479332 58.14971964 -13.9375 61.125 C-13.94251397 63.13932183 -13.94707705 65.15364484 -13.95117188 67.16796875 C-13.9622115 72.11200802 -13.97948151 77.05599135 -14 82 C-18.95 82 -23.9 82 -29 82 C-29 67.48 -29 52.96 -29 38 C-31.97 38 -34.94 38 -38 38 C-38 34.04 -38 30.08 -38 26 C-35.03 26 -32.06 26 -29 26 C-29.06960938 25.0821875 -29.13921875 24.164375 -29.2109375 23.21875 C-29.53025467 15.98089415 -29.59528957 11.12241312 -24.703125 5.55078125 C-17.72887946 -0.79962123 -9.11658142 -3.03886047 0 0 Z " fill="#727272" transform="translate(1459,250)"/>
<path d="M0 0 C46.35427057 0 46.35427057 0 55.30859375 7.25390625 C60.96506029 13.09326085 62.31880994 20.4961723 62.21484375 28.33984375 C61.72643704 34.3872068 59.8127307 40.10302493 55.65625 44.65234375 C49.51131984 49.65234589 42.40626064 52.14114589 34.578125 52.09765625 C33.65418945 52.09515869 32.73025391 52.09266113 31.77832031 52.09008789 C30.61397461 52.08098389 29.44962891 52.07187988 28.25 52.0625 C24.5375 52.041875 20.825 52.02125 17 52 C17 62.56 17 73.12 17 84 C11.39 84 5.78 84 0 84 C0 56.28 0 28.56 0 0 Z M17 14 C17 21.92 17 29.84 17 38 C20.01125 38.061875 23.0225 38.12375 26.125 38.1875 C27.06230957 38.21481201 27.99961914 38.24212402 28.96533203 38.27026367 C34.05100508 38.32063296 37.64608591 37.93430715 42 35 C44.70955758 30.54234076 45.53282087 26.92391944 44.6484375 21.86328125 C43.55213044 18.71304951 41.5691448 17.01861377 39 15 C36.17588235 14.05862745 34.47081968 13.88274618 31.55078125 13.90234375 C30.78677002 13.90484131 30.02275879 13.90733887 29.2355957 13.90991211 C28.27097412 13.91901611 27.30635254 13.92812012 26.3125 13.9375 C23.239375 13.958125 20.16625 13.97875 17 14 Z " fill="#737373" transform="translate(228,248)"/>
<path d="M0 0 C8.67149464 9.15324434 9.25 16.64046506 9.25 29.375 C-5.27 29.375 -19.79 29.375 -34.75 29.375 C-31.89017152 36.45247104 -31.89017152 36.45247104 -26.75 40.375 C-22.16094755 41.48935882 -18.79559679 41.75521701 -14.3125 40.125 C-11.54063225 38.46641655 -11.54063225 38.46641655 -9.75 35.375 C-7.87060547 35.03442383 -7.87060547 35.03442383 -5.6171875 35.08203125 C-4.81152344 35.09169922 -4.00585938 35.10136719 -3.17578125 35.11132812 C-2.33402344 35.13646484 -1.49226562 35.16160156 -0.625 35.1875 C0.22449219 35.20103516 1.07398438 35.21457031 1.94921875 35.22851562 C4.04974837 35.26391781 6.14995293 35.31772599 8.25 35.375 C7.80117683 36.64392315 7.34537207 37.91037802 6.88671875 39.17578125 C6.63365967 39.88130127 6.38060059 40.58682129 6.11987305 41.3137207 C3.42806114 47.69232522 -1.80436114 51.33331217 -7.75 54.375 C-16.69567747 57.98767744 -26.389858 57.31651202 -35.20703125 53.703125 C-43.33053487 49.46043494 -47.75800059 43.55419846 -51 35.125 C-52.99236242 25.16318791 -51.81875173 16.17153105 -47.0625 7.1875 C-34.59811194 -7.97189089 -16.78594929 -9.91897003 0 0 Z M-32.75 13.4375 C-33.97932146 15.45591942 -33.97932146 15.45591942 -33.75 18.375 C-25.17 18.375 -16.59 18.375 -7.75 18.375 C-9.75629931 11.92172637 -9.75629931 11.92172637 -14.75 8.375 C-22.04514561 6.46151918 -27.44191465 7.96353699 -32.75 13.4375 Z " fill="#737373" transform="translate(610.75,276.625)"/>
<path d="M0 0 C8.67149464 9.15324434 9.25 16.64046506 9.25 29.375 C-5.27 29.375 -19.79 29.375 -34.75 29.375 C-31.89017152 36.45247104 -31.89017152 36.45247104 -26.75 40.375 C-22.16094755 41.48935882 -18.79559679 41.75521701 -14.3125 40.125 C-11.54063225 38.46641655 -11.54063225 38.46641655 -9.75 35.375 C-7.87060547 35.03442383 -7.87060547 35.03442383 -5.6171875 35.08203125 C-4.81152344 35.09169922 -4.00585938 35.10136719 -3.17578125 35.11132812 C-2.33402344 35.13646484 -1.49226563 35.16160156 -0.625 35.1875 C0.22449219 35.20103516 1.07398438 35.21457031 1.94921875 35.22851562 C4.04974837 35.26391781 6.14995293 35.31772599 8.25 35.375 C7.80117683 36.64392315 7.34537207 37.91037802 6.88671875 39.17578125 C6.63365967 39.88130127 6.38060059 40.58682129 6.11987305 41.3137207 C3.42806114 47.69232522 -1.80436114 51.33331217 -7.75 54.375 C-16.69567747 57.98767744 -26.389858 57.31651202 -35.20703125 53.703125 C-43.33053487 49.46043494 -47.75800059 43.55419846 -51 35.125 C-52.99236242 25.16318791 -51.81875173 16.17153105 -47.0625 7.1875 C-34.59811194 -7.97189089 -16.78594929 -9.91897003 0 0 Z M-32.75 13.4375 C-33.97932146 15.45591942 -33.97932146 15.45591942 -33.75 18.375 C-25.17 18.375 -16.59 18.375 -7.75 18.375 C-9.75629931 11.92172637 -9.75629931 11.92172637 -14.75 8.375 C-22.04514561 6.46151918 -27.44191465 7.96353699 -32.75 13.4375 Z " fill="#737373" transform="translate(501.75,276.625)"/>
<path d="M0 0 C6.27 0 12.54 0 19 0 C20.63635713 3.53772179 22.27229379 7.07563379 23.90722656 10.61401367 C24.73196798 12.39848459 25.55738273 14.18264426 26.3828125 15.96679688 C29.30416549 22.2904573 32.19114872 28.62554382 35 35 C38.74709008 27.86268556 41.74295334 20.47420783 44.75 13 C45.26142028 11.73555632 45.7731368 10.47123242 46.28515625 9.20703125 C47.52634215 6.1391944 48.76357018 3.06975678 50 0 C55.94 0 61.88 0 68 0 C66.10622397 5.88794151 64.0144043 11.56019632 61.515625 17.21484375 C61.18282532 17.9764682 60.85002563 18.73809265 60.50714111 19.52279663 C59.42523762 21.99605391 58.33773546 24.46680278 57.25 26.9375 C56.49514559 28.65961914 55.7405922 30.38187026 54.98632812 32.10424805 C53.0473868 36.52857503 51.10326668 40.95060298 49.15698242 45.3717041 C48.02130155 47.95160967 46.88650914 50.53190428 45.75195312 53.11230469 C42.43414161 60.65683311 39.11228461 68.1995807 35.78125 75.73828125 C35.26626953 76.90399658 34.75128906 78.06971191 34.22070312 79.27075195 C33.50964285 80.86054051 32.77884971 82.44230057 32 84 C26.06 84 20.12 84 14 84 C16.21842452 76.87303484 19.04822004 70.20419332 22.1875 63.4375 C22.65091797 62.42880859 23.11433594 61.42011719 23.59179688 60.38085938 C24.72372338 57.9186275 25.8598525 55.45843306 27 53 C26.01 53 25.02 53 24 53 C7.94302574 19.06883205 7.94302574 19.06883205 3 7.9375 C2.68095703 7.22029785 2.36191406 6.5030957 2.03320312 5.76416016 C0 1.13780131 0 1.13780131 0 0 Z " fill="#737373" transform="translate(788,272)"/>
<path d="M0 0 C6.67101059 4.71571438 10.61573483 10.77884384 12.4921875 18.76171875 C13.40743489 28.39752553 13.41709272 37.4008726 7.5703125 45.38671875 C1.10744272 53.05301945 -5.00077043 57.04843282 -15.015625 58 C-24.01980408 58.25534239 -31.73966859 56.30566786 -38.8828125 50.63671875 C-45.65477295 44.18458395 -48.55958785 35.8306933 -48.8203125 26.63671875 C-48.69819955 17.56372678 -45.71066155 10.05024022 -39.44140625 3.484375 C-28.32946825 -6.41535158 -12.80859274 -7.44564537 0 0 Z M-27.5078125 13.76171875 C-30.82987706 18.63408011 -31.89458386 24.0205849 -31.29296875 29.83984375 C-30.25986191 34.99553884 -28.16004087 38.01818467 -24.5078125 41.76171875 C-21.04770286 43.49177357 -17.29755923 43.10384866 -13.5078125 42.76171875 C-9.75501825 41.42739191 -8.14538171 39.5509002 -6.1953125 36.19921875 C-3.72849667 30.71181211 -3.37263466 25.18462743 -5.2734375 19.453125 C-6.99564959 15.72849964 -8.69204788 12.5636076 -12.5078125 10.76171875 C-18.66187313 9.24842515 -22.63391872 9.48251758 -27.5078125 13.76171875 Z " fill="#737373" transform="translate(341.5078125,275.23828125)"/>
<path d="M0 0 C5.97134524 4.12565671 10.0775186 10.18122813 12.33984375 17.08203125 C14.27526519 27.83658957 12.24833956 36.8897995 6.46875 46 C2.88260655 50.69640458 -2.42390796 54.19767042 -8.28125 55.1875 C-10.89834103 55.3081162 -13.47712219 55.37258391 -16.09375 55.375 C-17.12338867 55.39336914 -17.12338867 55.39336914 -18.17382812 55.41210938 C-27.21853401 55.43778025 -32.57691205 52.73831949 -39.10546875 46.56640625 C-41.93804281 43.46939081 -43.12255779 41.20429967 -44.28125 37.1875 C-44.508125 36.424375 -44.735 35.66125 -44.96875 34.875 C-46.12854018 24.90080446 -45.71984637 13.94878818 -39.28125 5.75 C-29.47749351 -3.99273725 -12.34274156 -6.83597994 0 0 Z M-27.09375 13.6875 C-29.9618584 17.31037377 -29.49966117 21.67954975 -29.53125 26.0625 C-29.551875 26.77019531 -29.5725 27.47789062 -29.59375 28.20703125 C-29.62762784 32.75513067 -29.06851973 35.5746172 -26.28125 39.1875 C-22.16038018 42.81779008 -18.83108812 43.90916664 -13.4609375 43.62890625 C-9.62896595 42.85289768 -7.81321804 41.08117776 -5.28125 38.1875 C-2.03316991 32.4172365 -1.27482179 26.46286943 -2.78515625 20.046875 C-4.27206844 15.45868882 -5.90846066 12.56401595 -10.28125 10.1875 C-17.00984076 8.39652575 -21.62225727 9.15936809 -27.09375 13.6875 Z " fill="#727272" transform="translate(1409.28125,277.8125)"/>
<path d="M0 0 C5.95934132 3.60803658 10.6162421 8.58013154 12.84765625 15.30078125 C13.50633232 19.03696904 13.59656385 22.71149231 13.625 26.5 C13.63063965 27.2204248 13.6362793 27.94084961 13.64208984 28.68310547 C13.52666703 37.23026228 11.23300834 43.73072533 5.3125 49.9375 C-1.32503539 55.19816895 -7.19732355 56.12495662 -15.5625 56.1875 C-16.24441406 56.208125 -16.92632813 56.22875 -17.62890625 56.25 C-24.99005027 56.30608491 -30.94719943 53.57859408 -36.6875 48.9375 C-44.30602397 39.61014822 -44.38530135 30.36593214 -43.51953125 18.66796875 C-42.41498884 12.28761199 -38.18419385 7.38694313 -33.6875 2.9375 C-24.49175162 -3.2855553 -10.21922705 -4.76584748 0 0 Z M-26 15.4375 C-29.62866868 20.81330545 -29.15223371 26.67189378 -28.6875 32.9375 C-27.16209367 37.20863772 -25.15139885 40.01483535 -21.6875 42.9375 C-16.84590419 44.55136527 -12.47928187 44.77366487 -7.875 42.625 C-4.32870336 39.88928545 -2.52520669 38.40277582 -1.6875 33.9375 C-1.54411194 31.64880596 -1.46708697 29.35549044 -1.4375 27.0625 C-1.41171875 25.86882812 -1.3859375 24.67515625 -1.359375 23.4453125 C-1.77660963 18.98487562 -2.91785461 15.54003602 -6.30078125 12.4765625 C-13.73528015 8.47731481 -20.01325658 8.96534495 -26 15.4375 Z " fill="#727272" transform="translate(1304.6875,277.0625)"/>
<path d="M0 0 C1.94326172 -0.02126953 1.94326172 -0.02126953 3.92578125 -0.04296875 C7.6875 0.1875 7.6875 0.1875 13.6875 2.1875 C13.6875 6.8075 13.6875 11.4275 13.6875 16.1875 C12.388125 15.6925 11.08875 15.1975 9.75 14.6875 C5.0332294 13.10278468 0.63976819 12.61268316 -4.3125 13.1875 C-5.60883621 14.25395115 -5.60883621 14.25395115 -5.375 16.75 C-5.354375 17.554375 -5.33375 18.35875 -5.3125 19.1875 C-3.79269531 19.93193359 -3.79269531 19.93193359 -2.2421875 20.69140625 C13.52580842 28.59798321 13.52580842 28.59798321 15.6875 34.1875 C16.6332716 40.88256738 16.82057343 46.59343317 12.6875 52.1875 C11.00390625 53.734375 11.00390625 53.734375 9.25 54.9375 C8.67378906 55.34484375 8.09757812 55.7521875 7.50390625 56.171875 C0.5660075 60.05113021 -10.75361463 59.08514872 -18.25 57.1875 C-19.260625 56.8575 -20.27125 56.5275 -21.3125 56.1875 C-21.3125 51.2375 -21.3125 46.2875 -21.3125 41.1875 C-16.3125 43.1875 -16.3125 43.1875 -14.390625 44.3046875 C-11.5454198 45.5133649 -9.13798215 45.37935831 -6.0625 45.3125 C-4.44601562 45.28542969 -4.44601562 45.28542969 -2.796875 45.2578125 C-1.97703125 45.23460937 -1.1571875 45.21140625 -0.3125 45.1875 C0.0175 43.5375 0.3475 41.8875 0.6875 40.1875 C-2.44798203 37.65499529 -5.68421753 35.92907559 -9.3125 34.1875 C-18.4721265 29.79087928 -18.4721265 29.79087928 -20.54296875 25.83984375 C-22.17862781 20.20221685 -21.97191646 14.41303057 -20.3125 8.8125 C-15.11841861 1.99526817 -8.27758986 0.04093764 0 0 Z " fill="#727272" transform="translate(1344.3125,274.8125)"/>
<path d="M0 0 C0.69931641 -0.020625 1.39863281 -0.04125 2.11914062 -0.0625 C7.38217549 -0.1018866 9.14361849 0.72805925 14.1875 3.25 C14.1875 7.87 14.1875 12.49 14.1875 17.25 C9.1875 15.25 9.1875 15.25 6.8125 14.125 C2.2148499 12.59244997 -1.47401758 12.75134969 -6 14.4375 C-9.62011046 16.77046007 -11.89022378 19.40544755 -13.8125 23.25 C-14.31564949 29.7135357 -14.7382518 35.78198856 -10.8125 41.25 C-6.91490796 44.78219279 -3.25340929 45.57984793 1.98828125 45.55078125 C5.22373156 45.10827739 7.71573739 43.7357921 10.5234375 42.125 C12.1875 41.25 12.1875 41.25 14.1875 41.25 C14.1875 45.87 14.1875 50.49 14.1875 55.25 C8.84789386 57.91980307 4.0619028 58.5757538 -1.875 58.625 C-2.88336914 58.64530273 -2.88336914 58.64530273 -3.91210938 58.66601562 C-11.18895366 58.60199647 -17.1817858 55.80249233 -22.8125 51.25 C-26.5795267 46.63803273 -29.57405141 42.33043917 -29.8125 36.25 C-29.84988281 35.34121094 -29.88726563 34.43242187 -29.92578125 33.49609375 C-30.18799681 22.46923924 -28.61666238 14.53836223 -20.8125 6.25 C-14.17035465 1.84203081 -7.91024375 0.05737257 0 0 Z " fill="#727272" transform="translate(1206.8125,274.75)"/>
<path d="M0 0 C0 5.94 0 11.88 0 18 C-1.85625 18.0825 -3.7125 18.165 -5.625 18.25 C-11.01935573 18.70801134 -14.05899531 19.26641661 -18 23 C-20.15500276 27.14456055 -20.33804749 31.12667985 -20.4140625 35.70703125 C-20.43342865 36.43242599 -20.4527948 37.15782074 -20.4727478 37.90519714 C-20.53222108 40.20751422 -20.57879845 42.50988219 -20.625 44.8125 C-20.66320958 46.37957832 -20.70226303 47.94663631 -20.7421875 49.51367188 C-20.83947495 53.34233825 -20.91929594 57.1708049 -21 61 C-26.61 61 -32.22 61 -38 61 C-38 41.2 -38 21.4 -38 1 C-33.05 1 -28.1 1 -23 1 C-22.67 3.64 -22.34 6.28 -22 9 C-21.56429687 8.60167969 -21.12859375 8.20335937 -20.6796875 7.79296875 C-13.53943993 1.44093032 -10.15610072 0 0 0 Z " fill="#737373" transform="translate(556,271)"/>
<path d="M0 0 C1.19496094 -0.00386719 1.19496094 -0.00386719 2.4140625 -0.0078125 C4.375 0.125 4.375 0.125 5.375 1.125 C5.44813567 3.65549402 5.46747527 6.15804837 5.4375 8.6875 C5.43298828 9.39841797 5.42847656 10.10933594 5.42382812 10.84179688 C5.41200864 12.60290013 5.39407263 14.36396036 5.375 16.125 C4.7975 15.96644531 4.22 15.80789063 3.625 15.64453125 C0.16954348 14.84665674 -3.10638636 14.61096385 -6.625 15.125 C-10.47653318 17.76025954 -11.40440015 20.73329075 -12.625 25.125 C-12.84727519 27.64763617 -12.97830216 30.1792567 -13.0390625 32.7109375 C-13.05842865 33.41272125 -13.0777948 34.114505 -13.0977478 34.83755493 C-13.15707569 37.05824999 -13.20373917 39.27899823 -13.25 41.5 C-13.28822302 43.01434434 -13.32727722 44.52866794 -13.3671875 46.04296875 C-13.46428884 49.73686543 -13.54422413 53.43056666 -13.625 57.125 C-18.575 57.125 -23.525 57.125 -28.625 57.125 C-28.625 38.645 -28.625 20.165 -28.625 1.125 C-23.675 1.125 -18.725 1.125 -13.625 1.125 C-13.295 2.775 -12.965 4.425 -12.625 6.125 C-11.861875 5.320625 -11.09875 4.51625 -10.3125 3.6875 C-6.86716051 0.40240886 -4.58461424 -0.0149336 0 0 Z " fill="#727272" transform="translate(1256.625,274.875)"/>
<path d="M0 0 C4.95 0 9.9 0 15 0 C15 18.48 15 36.96 15 56 C10.05 56 5.1 56 0 56 C0 37.52 0 19.04 0 0 Z " fill="#727272" transform="translate(1155,276)"/>
<path d="M0 0 C2.9375 1.5 2.9375 1.5 5 4 C5.81406404 7.78345953 5.4775969 10.90433652 3.9375 14.4375 C1.01717965 16.79259706 -1.29462195 16.93611417 -5 17 C-7.91330459 15.76993806 -9.47142711 14.69675518 -11.375 12.1875 C-12.26089715 9.08685996 -11.89945179 7.08383471 -11 4 C-7.96424026 -0.43687962 -5.1906441 -0.72851145 0 0 Z " fill="#727272" transform="translate(1166,253)"/>
</svg>
