<?xml version="1.0" standalone="no"?>
<!DOCTYPE svg PUBLIC "-//W3C//DTD SVG 20010904//EN"
 "http://www.w3.org/TR/2001/REC-SVG-20010904/DTD/svg10.dtd">
<svg version="1.0" xmlns="http://www.w3.org/2000/svg"
 width="225.000000pt" height="225.000000pt" viewBox="0 0 225.000000 225.000000"
 preserveAspectRatio="xMidYMid meet">

<g transform="translate(0.000000,225.000000) scale(0.100000,-0.100000)"
fill="#000000" stroke="none">
<path d="M1140 2243 c-5 -176 -3 -2243 3 -2243 4 0 6 492 5 1094 -2 602 0
1089 4 1083 4 -7 8 -497 8 -1089 l0 -1078 61 0 c41 0 58 3 53 11 -4 8 0 9 15
4 25 -8 171 23 171 37 0 5 -5 6 -12 2 -7 -5 -8 -3 -3 6 6 9 4 12 -6 8 -8 -3
-23 0 -33 8 -17 12 -17 14 -3 20 9 3 25 -3 38 -15 18 -16 25 -18 32 -9 6 9 7
7 3 -6 -5 -14 -2 -17 10 -12 8 3 20 6 25 6 6 0 8 4 5 9 -3 5 1 12 10 15 8 3
13 2 10 -3 -4 -5 3 -7 14 -4 11 3 20 10 20 16 0 6 3 7 7 4 10 -11 150 68 228
128 87 67 185 165 165 166 -9 0 -5 4 7 9 37 15 161 210 147 232 -4 6 -3 8 3 5
16 -10 35 41 23 63 -7 13 -6 21 4 30 12 9 14 7 10 -12 -5 -21 -4 -21 6 -5 9
14 9 22 -2 34 -11 15 -11 16 5 10 13 -5 17 -3 14 5 -2 7 -10 12 -16 10 -7 -1
-9 2 -5 9 4 7 -1 18 -11 25 -20 15 -14 44 10 44 13 0 14 -4 4 -22 -11 -21 -11
-22 5 -9 9 8 19 11 23 7 3 -3 2 -6 -3 -6 -5 0 -10 -9 -11 -20 -1 -11 2 -20 8
-20 5 0 9 2 9 3 0 2 9 48 21 103 25 122 27 321 5 439 -20 99 -54 205 -67 205
-6 0 -7 4 -4 10 8 13 -68 159 -124 234 -71 97 -169 195 -190 189 -11 -3 -22 1
-27 8 -5 9 -2 11 9 6 31 -12 18 3 -44 48 -52 38 -63 43 -75 31 -16 -16 -19
-30 -5 -21 5 3 13 1 16 -5 5 -7 11 -8 19 -1 18 15 37 -1 20 -17 -10 -9 -14 -9
-14 -1 0 8 -4 8 -16 -1 -8 -8 -14 -9 -12 -3 2 6 -1 11 -7 12 -5 0 -10 -8 -9
-17 0 -25 -48 -28 -63 -4 -9 15 -8 19 5 19 10 0 23 -4 30 -10 6 -5 12 -6 13
-1 0 5 2 19 3 32 2 13 -3 22 -11 22 -7 0 -13 5 -13 10 0 14 13 13 28 -2 9 -9
12 -9 12 0 0 20 -244 132 -258 117 -3 -2 -11 0 -19 6 -7 6 -13 8 -13 4 0 -4
-6 -2 -14 4 -8 7 -37 13 -65 14 -28 1 -51 5 -51 10 0 4 -27 7 -60 7 -48 0 -60
-3 -60 -16 0 -8 -4 -13 -10 -9 -5 3 -7 12 -3 20 3 8 2 15 -1 15 -3 0 -6 -3 -6
-7z m129 -29 c2 -2 -10 -4 -28 -4 -19 0 -30 -4 -26 -10 3 -5 2 -10 -4 -10 -5
0 -9 9 -8 19 1 16 6 19 32 14 16 -3 32 -7 34 -9z m-92 -31 c-3 -10 -5 -4 -5
12 0 17 2 24 5 18 2 -7 2 -21 0 -30z m137 21 c11 -27 7 -37 -9 -24 -8 7 -12
17 -8 23 3 6 1 7 -6 3 -6 -4 -9 -12 -6 -17 3 -5 -1 -6 -10 -3 -14 6 -14 8 2
20 23 18 30 17 37 -2z m36 6 c12 -8 11 -10 -7 -10 -13 0 -23 5 -23 10 0 13 11
13 30 0z m79 -25 c17 1 28 -2 25 -7 -3 -4 0 -8 5 -8 6 0 11 -5 11 -11 0 -8 -5
-8 -15 1 -8 7 -15 9 -15 4 0 -5 -5 -2 -10 6 -8 12 -10 12 -10 1 0 -9 -4 -10
-12 -4 -7 6 -27 9 -45 8 -18 -1 -30 2 -27 7 3 5 9 6 14 3 4 -3 14 2 21 11 10
13 14 13 20 1 5 -8 21 -13 38 -12z m-129 -23 c0 -12 -3 -12 -17 -1 -10 7 -20
14 -22 16 -2 1 6 1 18 0 11 -1 21 -8 21 -15z m220 -2 c0 -5 -7 -10 -16 -10 -8
0 -12 5 -9 10 3 6 10 10 16 10 5 0 9 -4 9 -10z m62 -30 c12 -10 25 -17 30 -14
4 3 15 -2 24 -10 8 -9 11 -16 6 -16 -5 0 -12 3 -16 8 -11 10 -30 9 -39 -3 -5
-6 -7 -3 -3 8 6 20 -8 23 -26 3 -11 -11 -16 -11 -35 1 -12 8 -28 12 -35 8 -7
-4 -4 1 7 10 13 11 21 12 24 4 2 -8 6 -7 13 2 8 11 9 10 4 -3 -6 -20 -5 -21
18 -12 13 5 14 9 5 20 -17 21 -1 17 23 -6z m-205 3 c-9 -2 -15 -9 -12 -14 4
-5 -3 -9 -14 -9 -12 0 -21 4 -21 9 0 10 24 19 50 19 10 0 9 -2 -3 -5z m53 -19
c0 -2 -9 -4 -21 -4 -11 0 -18 4 -14 10 5 8 35 3 35 -6z m-120 -14 c0 -5 -4
-10 -9 -10 -6 0 -13 5 -16 10 -3 6 1 10 9 10 9 0 16 -4 16 -10z m476 -82 c4
-7 3 -8 -4 -4 -7 4 -12 2 -12 -5 0 -7 -3 -10 -6 -6 -6 5 3 27 11 27 2 0 7 -5
11 -12z m13 -31 c-9 -7 -14 -18 -11 -26 3 -8 0 -11 -7 -7 -6 4 -11 2 -11 -4 0
-7 8 -9 20 -5 11 3 20 2 20 -3 0 -5 -10 -9 -22 -8 -18 1 -22 7 -20 26 2 25 31
55 41 44 3 -3 -1 -11 -10 -17z m-45 -19 c-6 -9 -54 -6 -54 3 0 4 13 6 29 5 16
0 27 -4 25 -8z m121 -18 c20 -17 20 -44 -1 -36 -9 3 -21 6 -27 6 -7 0 -6 4 3
9 8 6 19 7 25 4 5 -4 7 -2 2 2 -4 5 -17 10 -28 12 -12 2 -28 7 -37 12 -12 7
-7 8 16 6 17 -1 38 -8 47 -15z m76 -77 c13 -14 19 -23 12 -19 -7 3 -14 -2 -18
-14 -8 -24 -29 -22 -31 4 -2 15 -2 15 3 0 4 -14 7 -14 14 -3 5 9 1 21 -13 36
-16 18 -18 23 -6 23 8 0 25 -12 39 -27z m-74 11 c-3 -3 -12 -4 -19 -1 -8 3 -5
6 6 6 11 1 17 -2 13 -5z m128 -89 c22 -21 33 -40 29 -50 -5 -11 -2 -14 12 -9
14 4 15 3 6 -3 -7 -6 -12 -16 -10 -24 2 -9 -4 -13 -16 -11 -15 3 -17 0 -11
-15 16 -40 17 -53 4 -53 -8 0 -20 12 -26 27 -11 22 -10 29 2 43 8 9 12 21 8
25 -5 5 0 3 10 -4 21 -17 22 -3 1 27 -8 12 -12 27 -9 32 3 6 2 10 -4 10 -5 0
-11 -5 -13 -11 -5 -14 -68 -2 -68 12 0 12 27 12 35 -1 3 -5 12 -7 21 -3 13 5
13 8 -2 24 -30 33 -5 20 31 -16z m-297 -37 c-2 -6 6 -13 17 -15 16 -3 17 -2 5
6 -8 6 -13 11 -10 12 3 0 12 2 21 4 10 2 16 -3 15 -13 0 -9 11 -18 27 -23 23
-6 28 -5 25 8 -2 9 -10 18 -18 20 -13 4 -13 3 0 -6 12 -8 11 -10 -8 -8 -35 2
-7 22 33 23 38 1 43 -7 19 -30 -14 -15 -11 -21 29 -69 25 -28 62 -79 82 -112
21 -33 42 -63 47 -66 6 -3 9 -9 9 -13 -4 -30 1 -36 24 -32 15 3 25 0 26 -7 0
-9 2 -8 6 1 2 6 9 9 15 6 17 -11 -14 -23 -33 -13 -25 13 -31 -2 -14 -34 8 -15
11 -27 8 -27 -3 0 0 -6 6 -13 6 -8 9 -16 6 -18 -8 -9 16 -80 25 -74 14 9 23
-16 11 -28 -9 -9 -10 -7 -5 7 5 13 4 17 -4 12 -7 -4 -12 -16 -12 -27 0 -11 3
-18 8 -16 4 3 7 -35 7 -83 0 -48 -3 -86 -7 -83 -5 2 -8 -8 -8 -24 0 -22 2 -25
10 -13 8 12 9 10 7 -7 -2 -12 -7 -26 -12 -30 -4 -5 -5 -1 0 7 5 10 5 12 -2 5
-6 -5 -13 -28 -16 -50 -3 -22 -3 -32 -1 -22 3 9 10 17 15 17 6 0 8 4 5 9 -3 5
2 15 11 22 14 12 17 12 21 0 4 -11 6 -11 13 0 7 11 9 10 9 -3 0 -23 -16 -32
-24 -12 -8 21 -26 8 -21 -16 2 -12 0 -18 -6 -15 -5 4 -9 -1 -9 -9 0 -9 6 -16
13 -16 8 0 7 -4 -3 -10 -8 -5 -19 -10 -25 -10 -5 0 -3 5 5 10 13 9 13 10 0 10
-9 0 -24 -24 -39 -63 -12 -34 -41 -90 -62 -125 -22 -35 -36 -68 -33 -74 4 -6
3 -8 -3 -5 -11 7 -93 -84 -93 -102 0 -6 -5 -11 -11 -11 -5 0 -7 5 -3 11 5 8 1
8 -13 0 -11 -6 -24 -7 -28 -3 -3 4 -6 2 -5 -3 5 -23 -1 -36 -12 -28 -7 4 -21
6 -31 5 -16 -3 -16 -1 -5 17 10 17 14 18 21 6 10 -19 28 -19 21 0 -3 8 -14 17
-23 20 -12 3 -18 18 -19 45 -3 35 3 47 40 90 127 144 188 338 167 528 -9 79
-35 182 -47 182 -14 -1 -45 -30 -39 -37 4 -4 13 -1 19 5 7 7 17 12 23 12 5 0
3 -5 -5 -10 -9 -6 -11 -10 -3 -10 7 0 10 -7 6 -17 -4 -10 -2 -14 4 -10 6 4 8
-4 5 -21 -4 -19 -7 -22 -10 -9 -2 9 -7 15 -11 12 -5 -2 -6 6 -4 19 4 17 0 22
-14 21 -10 0 -24 -4 -31 -9 -6 -4 -12 -2 -12 3 0 6 6 11 13 11 9 0 9 2 0 8 -8
5 -8 12 3 26 8 11 14 14 14 8 0 -7 4 -12 9 -12 5 0 8 12 5 28 -3 19 -2 23 5
12 5 -8 7 -19 4 -25 -4 -6 -2 -6 6 1 16 15 3 44 -20 44 -10 0 -19 3 -20 8 0 4
-2 15 -4 25 -2 9 1 15 6 11 5 -3 7 -9 4 -14 -3 -4 2 -11 11 -14 17 -7 15 -3
-30 64 -16 24 -45 61 -64 82 -31 34 -34 43 -29 79 4 34 3 38 -9 28 -8 -7 -13
-17 -11 -24 3 -6 -5 -11 -17 -12 -11 0 -15 1 -8 4 19 7 14 31 -8 38 -11 3 -20
14 -20 22 0 9 3 13 7 10 3 -4 12 2 20 13 15 22 45 27 41 8z m177 -7 c-3 -6
-11 -11 -17 -11 -6 0 -6 6 2 15 14 17 26 13 15 -4z m95 -16 c0 -8 -4 -15 -8
-15 -5 0 -9 7 -9 15 0 8 4 15 9 15 4 0 8 -7 8 -15z m-117 -17 c3 -10 7 -10 20
1 10 7 17 11 17 7 0 -3 0 -8 0 -11 0 -3 -3 -5 -6 -4 -4 0 -11 -5 -16 -13 -7
-10 -11 -10 -15 0 -2 6 -11 12 -19 12 -9 0 -12 5 -9 10 9 14 22 13 28 -2z
m207 -12 c0 -7 7 -19 15 -26 8 -7 12 -16 9 -21 -3 -5 1 -9 8 -9 9 0 9 -3 -2
-10 -12 -8 -12 -10 5 -11 l20 0 -20 -9 c-11 -5 -26 -9 -34 -9 -11 -1 -11 2 2
17 23 26 24 30 3 45 -20 15 -31 47 -15 47 5 0 9 -6 9 -14z m-454 -7 c3 -6 2
-15 -4 -21 -6 -6 -11 -2 -15 11 -5 22 7 29 19 10z m301 -28 c-5 -25 -2 -30 18
-35 16 -4 22 -11 19 -21 -9 -22 -16 -19 -46 18 -19 25 -24 37 -16 48 8 11 9
10 4 -3 -3 -10 -1 -18 4 -18 6 0 10 9 10 20 0 11 3 20 6 20 4 0 4 -13 1 -29z
m-260 -66 c10 2 22 4 27 4 4 1 6 8 3 16 -4 8 -2 17 3 20 6 4 10 2 10 -4 0 -5
3 -17 7 -27 4 -10 2 -15 -3 -11 -6 3 -16 2 -24 -4 -13 -7 -12 -9 3 -9 9 0 19
1 20 3 8 5 36 -26 31 -34 -5 -8 9 -13 28 -10 4 0 13 -9 19 -22 7 -12 17 -25
23 -29 7 -5 7 -8 -2 -8 -7 0 -11 -4 -7 -9 7 -12 -29 -33 -39 -24 -3 3 -6 2 -6
-4 0 -17 13 -23 27 -11 16 13 28 4 17 -14 -5 -7 -7 -26 -5 -43 3 -28 5 -48 9
-99 2 -14 5 -16 15 -8 21 18 48 -12 53 -60 l4 -43 -15 44 c-16 47 -32 73 -20
31 7 -24 7 -25 -10 -5 -16 20 -16 20 -11 -5 8 -38 10 -210 2 -217 -10 -10 -7
-23 5 -23 5 0 7 6 3 13 -4 7 -3 9 2 4 5 -5 9 -14 9 -19 0 -6 5 -13 11 -15 18
-6 38 96 21 108 -5 3 -1 9 8 12 9 4 13 3 10 -3 -3 -6 -2 -10 3 -10 5 0 12 -11
14 -25 3 -13 1 -23 -5 -22 -6 1 -15 -14 -21 -34 -6 -20 -17 -43 -23 -51 -7 -8
-9 -18 -5 -23 4 -4 -6 -5 -23 -2 -29 5 -31 2 -66 -69 -36 -72 -36 -102 0 -70
15 14 17 14 18 -4 1 -11 -3 -20 -8 -20 -6 0 -7 -5 -3 -11 4 -8 9 -8 17 0 6 6
16 11 21 11 6 0 3 -5 -7 -11 -9 -6 -15 -15 -11 -21 4 -6 -2 -6 -15 1 -11 7
-21 16 -21 20 0 5 -7 12 -16 15 -12 5 -37 -14 -83 -60 -36 -37 -59 -65 -51
-62 11 4 16 -1 17 -13 1 -10 -2 -19 -8 -19 -5 0 -9 4 -9 10 0 5 -13 16 -29 24
-22 12 -31 12 -42 3 -11 -10 -11 -9 0 5 10 14 9 17 -8 23 -30 9 -26 25 7 24
24 0 25 -1 7 -9 -14 -6 -16 -9 -5 -10 8 -2 19 -2 23 -1 5 1 6 -3 3 -8 -4 -5 5
-8 19 -7 29 3 47 16 22 16 -25 0 -57 37 -57 66 0 14 -4 23 -8 20 -10 -6 -9 25
2 42 4 7 1 15 -9 19 -10 3 -21 0 -25 -7 -5 -8 -9 -9 -14 -1 -4 6 -1 11 6 11 9
0 9 3 2 8 -8 5 -6 13 6 25 14 14 20 15 26 6 4 -7 3 -10 -3 -6 -6 4 -13 0 -17
-8 -8 -22 21 -19 33 3 7 13 6 23 -2 31 -9 10 -8 11 8 6 12 -4 16 -4 8 2 -14
10 0 38 19 38 8 0 12 10 10 25 -4 22 -2 23 15 10 15 -12 16 -12 6 0 -19 21
-16 45 9 73 19 22 23 22 38 8 14 -14 14 -17 0 -29 -13 -12 -13 -13 4 -7 19 6
19 5 1 -15 -22 -24 -43 -27 -24 -3 12 15 12 16 -3 10 -11 -4 -18 -2 -18 5 0 6
-2 9 -5 6 -3 -3 -1 -17 4 -30 6 -16 6 -29 0 -35 -6 -6 -4 -14 6 -23 8 -7 15
-18 15 -24 0 -6 -5 -4 -11 4 -9 13 -10 12 -5 -3 3 -10 2 -16 -2 -13 -4 2 -9
-5 -9 -16 -1 -12 -6 -25 -12 -31 -7 -7 -8 -2 -4 13 4 16 3 21 -6 16 -6 -4 -9
-12 -6 -17 4 -5 1 -9 -6 -9 -7 0 -10 -3 -6 -6 3 -4 -1 -21 -9 -38 -15 -29 -14
-29 20 9 80 89 126 233 112 348 -8 58 -22 71 -61 56 -12 -4 -14 -8 -6 -8 8 -1
12 -3 9 -6 -10 -11 -39 8 -34 22 3 8 1 11 -4 8 -6 -4 -9 -3 -8 2 3 13 -13 53
-22 53 -4 0 1 -23 12 -52 44 -117 16 -268 -66 -354 -58 -60 -77 -59 -134 10
-8 10 -9 16 -2 16 5 0 10 6 10 14 0 7 14 30 30 51 30 38 37 50 23 42 -5 -3
-21 1 -38 8 l-30 13 43 -4 c44 -5 57 11 28 35 -8 7 -12 21 -9 32 7 25 23 35
18 11 -2 -10 1 -25 6 -33 6 -10 9 -1 9 26 0 51 -18 115 -32 115 -6 0 -8 3 -5
6 4 4 -5 20 -18 36 -30 36 -32 81 -5 108 25 25 50 25 82 0 14 -10 29 -16 32
-12 4 4 6 2 5 -3 -7 -21 22 -57 42 -52 10 3 17 2 15 -2 -3 -4 -1 -13 3 -20 6
-9 10 -5 13 13 3 14 2 25 -1 24 -17 -1 -50 15 -45 23 3 5 0 9 -6 9 -7 0 -5 6
4 15 8 8 23 15 33 14 16 0 16 -1 -2 -9 -18 -7 -16 -9 12 -15 17 -4 34 -12 36
-19 8 -22 0 -61 -13 -61 -17 0 -24 -21 -11 -30 6 -3 11 -1 11 5 0 6 5 8 11 5
6 -5 4 -12 -8 -22 -17 -13 -16 -13 4 -4 12 6 29 8 37 5 21 -8 20 11 -4 64 -33
72 -58 101 -83 96 -12 -2 -24 -9 -26 -15 -2 -6 -11 -3 -22 7 -13 12 -19 13
-19 4 0 -10 -4 -9 -17 1 -9 8 -19 14 -22 14 -3 0 -5 3 -4 8 2 4 -2 7 -8 7 -6
0 -3 7 5 16 9 8 21 12 28 8 8 -5 6 -9 -7 -14 -12 -4 -15 -9 -8 -13 6 -4 19 0
27 9 15 14 17 14 22 0 3 -9 13 -16 21 -16 9 0 11 5 7 13 -4 6 2 3 14 -7 12
-11 22 -15 22 -9 0 5 -9 18 -20 28 -34 31 -25 87 19 109 22 12 31 12 51 1 14
-7 29 -11 34 -8 5 4 6 1 3 -4 -4 -6 11 -33 32 -59 21 -27 48 -67 59 -89 19
-36 21 -38 22 -14 0 14 -9 34 -20 44 -21 19 -22 39 -2 41 25 3 27 5 12 14 -10
6 -20 4 -32 -7 -25 -22 -23 -8 2 17 23 23 35 26 24 8 -5 -10 -3 -10 7 0 12 11
12 14 -1 22 -17 10 -30 4 -30 -15 0 -7 -7 -16 -16 -19 -8 -3 -12 -2 -9 4 9 15
-4 50 -18 47 -7 -1 -11 7 -9 19 2 12 -4 24 -13 27 -8 4 -15 2 -15 -2 0 -5 6
-11 13 -14 6 -2 -1 -4 -17 -4 -21 0 -25 2 -15 9 11 8 10 8 -4 4 -11 -3 -20 0
-23 9 -6 16 -26 21 -21 6 1 -5 -2 -8 -8 -7 -5 0 -9 4 -7 9 1 4 -7 2 -18 -5
-11 -7 -15 -15 -9 -19 7 -4 5 -12 -5 -21 -8 -9 -12 -18 -9 -22 4 -3 -1 -6 -11
-6 -15 0 -15 2 -1 23 8 13 12 27 8 31 -20 19 -9 33 24 30 29 -1 36 2 44 25
l11 26 14 -27 c8 -16 20 -25 31 -23z m339 -28 c-2 -12 4 -33 14 -47 9 -14 23
-36 29 -50 11 -24 11 -24 -3 -6 -9 11 -16 23 -16 27 0 4 -11 10 -25 13 -14 4
-23 11 -20 16 3 5 1 11 -5 15 -5 3 -15 15 -20 25 -9 16 -8 18 6 13 13 -5 15
-3 9 8 -7 11 -5 11 10 -1 17 -14 18 -13 12 3 -4 11 -3 16 3 12 5 -3 8 -16 6
-28z m124 23 c0 -5 -10 -15 -22 -21 l-23 -12 20 21 c23 24 25 25 25 12z m-620
-39 c0 -15 -37 -51 -53 -51 -3 0 3 16 12 35 17 37 41 47 41 16z m646 7 c4 -6
2 -14 -4 -16 -7 -2 -9 -8 -6 -14 4 -6 -2 -6 -14 1 -24 13 -32 14 -31 4 1 -5 1
-19 0 -32 -1 -20 -3 -21 -16 -11 -8 7 -15 19 -15 26 0 8 -5 14 -12 14 -6 0 -9
3 -6 6 4 3 16 1 27 -5 16 -9 19 -9 15 2 -3 8 5 18 18 25 30 14 35 14 44 0z
m19 -76 c-3 -3 -11 0 -18 7 -9 10 -8 11 6 5 10 -3 15 -9 12 -12z m-632 -22 c3
-11 1 -20 -4 -20 -5 0 -9 9 -9 20 0 11 2 20 4 20 2 0 6 -9 9 -20z m650 -19
c13 -26 13 -31 -1 -45 -18 -18 -24 -58 -8 -49 7 3 6 1 -1 -7 -6 -7 -16 -9 -22
-5 -15 9 -11 73 5 86 7 6 11 19 9 30 -5 27 1 24 18 -10z m-833 0 c0 -23 -32
-81 -50 -91 -11 -6 -20 -7 -20 -2 0 13 25 33 34 27 3 -3 2 0 -4 7 -7 8 -4 18
8 32 9 11 11 16 5 12 -14 -7 -18 6 -6 17 9 10 33 9 33 -2z m77 -26 c1 -15 0
-15 -3 -3 -3 9 -13 19 -22 22 -12 3 -12 4 3 3 12 -1 21 -10 22 -22z m673 -22
l-1 -48 -19 23 c-10 12 -21 18 -24 13 -3 -5 2 -12 11 -15 12 -5 13 -10 6 -17
-16 -16 -33 -2 -28 21 2 11 0 20 -5 20 -4 0 -10 7 -13 14 -4 10 -1 13 9 9 7
-3 14 -10 14 -15 0 -6 8 -4 17 3 10 8 14 9 10 2 -4 -6 -3 -14 3 -18 6 -4 10 6
10 24 0 17 2 31 5 31 3 0 5 -21 5 -47z m-690 23 c0 -1 -11 -17 -24 -35 l-25
-33 4 28 c2 16 4 31 5 34 2 3 2 8 2 11 -1 4 8 5 18 2 11 -3 20 -6 20 -7z m808
-145 c0 -34 -4 -64 -9 -67 -5 -3 -7 8 -5 23 2 15 1 22 -1 16 -2 -7 -9 -13 -15
-13 -6 0 -7 8 -3 18 11 29 11 34 -4 40 -9 3 -11 0 -6 -9 5 -8 4 -11 0 -6 -5 4
-9 16 -10 27 -1 11 1 18 3 15 3 -3 11 3 18 13 10 13 10 21 1 32 -7 9 -2 6 10
-6 17 -18 21 -35 21 -83z m-902 12 c-10 -10 -19 5 -10 18 6 11 8 11 12 0 2 -7
1 -15 -2 -18z m534 23 c0 -11 -19 -15 -25 -6 -3 5 1 10 9 10 9 0 16 -2 16 -4z
m227 -18 c2 -18 0 -20 -7 -8 -12 18 -13 30 -2 30 4 0 9 -10 9 -22z m-698 -15
c11 -21 10 -22 -14 -13 -21 8 -27 6 -40 -18 -14 -25 -14 -26 -12 -4 2 13 10
28 18 33 8 5 10 9 4 10 -5 0 -1 4 10 8 11 5 21 8 21 7 1 0 7 -11 13 -23z m276
-21 c-8 -8 -25 10 -19 20 4 6 9 5 15 -3 4 -7 6 -15 4 -17z m254 -42 c0 -9 -4
-8 -9 5 -8 19 -9 19 -9 1 -1 -11 -4 -17 -7 -13 -4 3 -3 19 1 34 7 26 8 26 15
8 5 -11 9 -27 9 -35z m-509 20 c-8 -16 -8 -20 4 -20 8 0 18 -4 21 -10 4 -7 -2
-7 -18 -1 -14 6 -28 7 -32 3 -5 -4 0 5 10 21 20 31 31 37 15 7z m-36 -62 c21
-37 16 -63 -7 -38 -10 10 -9 11 2 5 9 -5 12 -3 9 6 -3 8 -11 13 -17 12 -9 -3
-13 10 -10 33 0 4 -5 11 -13 16 -11 8 -11 9 1 6 7 -2 23 -20 35 -40z m300 27
c-4 -8 -10 -12 -15 -9 -11 6 -2 24 11 24 5 0 7 -7 4 -15z m508 -12 c-3 -16 -7
-22 -10 -15 -4 13 4 42 11 42 2 0 2 -12 -1 -27z m-270 -38 c3 -14 1 -25 -3
-25 -5 0 -9 11 -9 25 0 14 2 25 4 25 2 0 6 -11 8 -25z m-452 11 c0 -3 -4 -8
-10 -11 -5 -3 -10 -1 -10 4 0 6 5 11 10 11 6 0 10 -2 10 -4z m407 -28 c-3 -7
-5 -2 -5 12 0 14 2 19 5 13 2 -7 2 -19 0 -25z m-226 -15 c-10 -17 -10 -16 -11
3 0 23 13 41 18 25 2 -6 -1 -18 -7 -28z m47 10 c1 -14 -1 -23 -5 -19 -10 10
-14 46 -5 46 4 0 9 -12 10 -27z m-378 -3 c0 -21 -15 -27 -25 -10 -7 12 2 30
16 30 5 0 9 -9 9 -20z m79 -29 c8 -5 11 -16 7 -26 -3 -10 -9 -15 -12 -12 -8 8
-34 -18 -34 -32 0 -17 -27 -13 -34 6 -7 17 9 33 32 33 6 0 11 3 11 8 -5 30 5
38 30 23z m825 -66 c-4 -8 -8 -15 -10 -15 -2 0 -4 7 -4 15 0 8 4 15 10 15 5 0
7 -7 4 -15z m23 -29 c-1 -20 -6 -31 -11 -26 -8 8 -1 60 8 60 3 0 4 -15 3 -34z
m-337 -35 c-6 -22 -14 -42 -19 -45 -4 -3 -1 19 8 49 18 62 28 58 11 -4z m287
27 c-3 -7 -5 -2 -5 12 0 14 2 19 5 13 2 -7 2 -19 0 -25z m-777 -3 c-10 -11
-24 -31 -29 -45 -10 -23 -11 -22 -7 11 5 47 12 58 36 56 19 -1 19 -2 0 -22z
m-82 -47 c1 -23 -2 -38 -9 -38 -6 0 -9 7 -5 15 3 8 0 20 -7 27 -18 20 -18 34
1 34 12 0 18 -10 20 -38z m330 17 c-6 -13 -15 -22 -21 -18 -5 3 -3 9 4 14 8 5
10 9 4 9 -5 0 -3 5 5 10 21 13 21 13 8 -15z m564 -8 c7 -13 3 -20 -17 -29 -22
-10 -29 -20 -27 -40 1 -3 -4 -8 -11 -11 -8 -3 -13 7 -14 27 -2 20 0 26 6 17
10 -16 19 -3 15 23 -1 11 -1 23 2 27 7 12 36 3 46 -14z m-356 -48 c3 -5 10 -6
16 -3 7 5 8 2 3 -5 -5 -9 -10 -10 -18 -2 -17 17 -31 13 -16 -5 16 -20 21 -44
8 -44 -6 0 -7 -4 -4 -10 3 -5 1 -10 -5 -10 -7 0 -9 8 -5 20 7 22 -10 60 -28
60 -7 0 -6 -4 3 -10 8 -5 11 -10 6 -10 -5 0 -3 -6 3 -14 7 -9 8 -17 2 -20 -9
-6 -33 48 -25 57 8 8 54 5 60 -4z m357 -9 c-3 -11 -9 -20 -14 -20 -5 0 -6 -8
-3 -17 5 -15 4 -15 -4 -3 -8 10 -8 18 0 27 8 11 7 12 -8 7 -18 -5 -18 -5 0 10
26 21 35 20 29 -4z m-883 -4 c0 -2 -7 -6 -15 -10 -8 -3 -15 -1 -15 4 0 6 7 10
15 10 8 0 15 -2 15 -4z m43 -38 c-14 -5 -15 -7 -3 -8 8 -2 19 -2 23 -1 5 1 6
-3 3 -8 -4 -6 6 -8 21 -7 16 2 31 -2 35 -8 5 -7 8 -4 8 7 0 9 5 17 10 17 7 0
7 -6 0 -20 -6 -11 -7 -20 -1 -20 5 0 11 -17 13 -39 2 -29 0 -37 -10 -33 -9 3
-11 13 -8 28 4 14 2 24 -4 24 -5 0 -9 6 -7 13 1 8 -9 12 -30 11 -18 -1 -33 3
-33 9 0 5 -8 3 -17 -4 -17 -13 -17 -13 -3 5 14 18 13 19 -2 13 -12 -4 -18 -1
-18 9 0 9 -5 12 -12 8 -7 -4 -8 -3 -4 4 4 7 14 12 23 12 10 0 13 6 9 18 -5 14
-3 13 9 -3 14 -18 14 -20 -2 -27z m431 -5 c7 -27 2 -63 -8 -63 -6 0 -10 18
-11 40 -2 41 10 54 19 23z m276 9 c0 -4 -5 -13 -12 -20 -9 -9 -9 -12 0 -12 6
0 9 -7 6 -15 -9 -22 -23 -8 -19 18 4 20 3 21 -9 4 -16 -21 -10 -57 10 -57 8 0
14 -4 14 -10 0 -5 -7 -10 -15 -10 -8 0 -15 5 -15 11 0 6 -7 9 -15 5 -19 -7
-19 -4 -1 39 8 19 12 35 8 36 -8 0 29 17 41 18 4 1 7 -3 7 -7z m-310 -32 c0
-5 -5 -10 -11 -10 -5 0 -7 5 -4 10 3 6 8 10 11 10 2 0 4 -4 4 -10z m63 -16 c7
-7 -2 -34 -12 -34 -4 0 -7 9 -7 20 0 20 7 25 19 14z m267 -24 c0 -11 -4 -20
-10 -20 -5 0 -10 9 -10 20 0 11 5 20 10 20 6 0 10 -9 10 -20z m-368 -42 c-14
-14 2 -38 26 -38 13 0 12 3 -4 16 -18 14 -18 15 4 4 23 -11 22 -30 -3 -30 -8
0 -17 -4 -20 -10 -4 -6 1 -7 12 -3 12 5 8 -3 -12 -25 -22 -23 -32 -28 -42 -20
-15 12 -17 22 -3 13 6 -3 10 -2 10 3 0 10 -34 43 -41 40 -3 -2 4 5 16 16 11
10 19 21 17 25 -3 5 17 13 48 20 2 1 -1 -4 -8 -11z m258 -17 c-13 -26 -13 -34
2 -25 7 5 8 3 3 -5 -13 -22 -28 4 -16 28 7 12 14 21 17 21 2 0 0 -9 -6 -19z
m99 0 c7 -5 9 -11 5 -14 -5 -3 -15 1 -22 9 -14 16 -5 18 17 5z m-634 -31 c3
-5 -1 -10 -9 -10 -9 0 -16 5 -16 10 0 6 4 10 9 10 6 0 13 -4 16 -10z m600 -14
c0 -15 -4 -21 -9 -16 -5 5 -6 16 -3 24 9 22 12 20 12 -8z m44 -22 c-5 -6 -4
-15 2 -21 8 -8 8 -17 0 -31 -6 -10 -7 -22 -4 -26 3 -3 1 -6 -6 -6 -7 0 -9 -5
-5 -12 4 -7 3 -8 -4 -4 -7 4 -12 2 -12 -3 0 -6 -5 -11 -11 -11 -5 0 -7 5 -3
11 4 7 -2 6 -17 -2 -22 -11 -23 -11 -10 4 7 10 21 17 31 17 20 0 34 26 23 42
-4 7 -1 8 7 3 8 -5 11 -3 8 6 -3 8 -11 13 -18 11 -11 -2 -11 0 -2 11 7 8 9 23
5 33 -6 16 -5 17 9 4 10 -9 13 -19 7 -26z m-454 16 c3 -5 1 -10 -4 -10 -6 0
-11 5 -11 10 0 6 2 10 4 10 3 0 8 -4 11 -10z m345 0 c8 -5 11 -10 7 -10 -4 0
-3 -9 3 -20 7 -14 7 -20 0 -20 -5 0 -10 7 -10 15 0 9 -7 18 -15 21 -15 6 -21
24 -7 24 4 0 14 -5 22 -10z m-37 -13 c3 -8 -1 -14 -8 -14 -7 0 -11 6 -8 14 3
7 6 13 8 13 2 0 5 -6 8 -13z m-290 -87 c-3 -11 -9 -18 -13 -15 -5 3 -10 2 -13
-2 -2 -5 -2 -2 0 5 1 8 3 26 3 40 1 25 2 26 14 9 8 -10 12 -27 9 -37z m32 40
c3 -5 1 -10 -4 -10 -6 0 -11 5 -11 10 0 6 2 10 4 10 3 0 8 -4 11 -10z m224
-22 c-1 -7 -1 -20 0 -28 1 -13 2 -13 12 0 8 11 10 11 7 1 -4 -15 -68 -24 -68
-9 0 5 5 18 10 29 12 21 42 26 39 7z m113 -53 c7 0 15 -2 17 -5 5 -8 -32 -80
-41 -80 -5 0 -6 -5 -2 -12 4 -7 3 -8 -4 -4 -7 4 -12 26 -12 49 0 38 1 39 14
21 8 -11 18 -15 23 -10 4 5 2 11 -5 13 -6 3 -10 9 -6 14 3 5 0 9 -5 9 -6 0
-11 8 -11 18 0 14 2 15 10 2 5 -8 15 -15 22 -15z m-326 -8 c0 -13 -6 -30 -14
-37 -13 -11 -14 -11 -10 1 3 8 1 22 -4 33 -7 13 -7 16 1 12 6 -4 11 -2 11 3 0
6 4 11 8 11 4 0 8 -10 8 -23z m-46 -41 c0 -19 -7 -20 -23 -3 -11 10 -13 21 -8
43 2 11 31 -25 31 -40z m267 9 c-7 -7 -13 -9 -15 -4 -2 5 -10 9 -18 9 -9 0
-13 4 -10 9 3 4 17 6 30 4 20 -4 22 -8 13 -18z m-67 -7 c11 -3 9 -6 -6 -10
-15 -4 -20 0 -22 16 0 11 2 16 6 10 4 -6 14 -13 22 -16z m110 -18 c0 -5 -4
-10 -10 -10 -5 0 -10 5 -10 10 0 6 5 10 10 10 6 0 10 -4 10 -10z m-42 -30
c-14 -22 -24 -19 -15 5 4 8 11 15 17 15 6 0 6 -7 -2 -20z m32 -4 c0 -2 -7 -7
-16 -10 -8 -3 -12 -2 -9 4 6 10 25 14 25 6z m-113 -58 c-3 -8 -6 -5 -6 6 -1
11 2 17 5 13 3 -3 4 -12 1 -19z m43 7 c10 -12 10 -15 -4 -15 -9 0 -16 7 -16
15 0 8 2 15 4 15 2 0 9 -7 16 -15z m66 -12 c-10 -11 -19 -7 -22 10 -2 15 0 16
12 6 8 -6 12 -14 10 -16z m-86 -23 c0 -5 -4 -10 -10 -10 -5 0 -10 5 -10 10 0
6 5 10 10 10 6 0 10 -4 10 -10z m49 -3 c-8 -7 -24 -25 -34 -40 -12 -19 -21
-25 -28 -18 -5 5 -23 7 -38 4 -18 -3 -29 -1 -29 6 0 6 11 11 25 11 14 0 25 6
26 13 0 6 4 3 8 -8 8 -19 10 -18 37 13 16 17 33 32 39 32 5 0 3 -6 -6 -13z
m-227 -39 c-9 -9 -15 -9 -24 0 -9 9 -7 12 12 12 19 0 21 -3 12 -12z m48 2 c0
-5 -2 -10 -4 -10 -3 0 -8 5 -11 10 -3 6 -1 10 4 10 6 0 11 -4 11 -10z m35 -40
c-3 -5 1 -10 9 -10 9 0 16 -7 16 -16 0 -8 -5 -12 -10 -9 -6 4 -19 1 -28 -7
-15 -11 -16 -11 -4 3 7 9 12 21 11 25 -2 14 0 24 7 24 3 0 2 -4 -1 -10z m70 0
c-3 -5 -11 -10 -16 -10 -6 0 -7 5 -4 10 3 6 11 10 16 10 6 0 7 -4 4 -10z
m-233 -42 c-9 -9 -12 -7 -12 12 0 19 3 21 12 12 9 -9 9 -15 0 -24z m130 15
c-6 -2 -10 -9 -6 -14 3 -5 1 -9 -5 -9 -13 0 -22 15 -14 24 3 3 13 6 22 5 11 0
12 -2 3 -6z m16 -36 c18 7 17 5 -12 -17 -13 -10 -17 -10 -12 -2 4 7 1 12 -8
12 -8 0 -13 -6 -10 -13 6 -17 -52 -51 -62 -36 -4 8 -3 9 4 5 8 -5 12 2 12 18
0 14 4 26 9 26 6 0 8 -9 6 -20 -2 -12 0 -18 6 -15 5 4 6 11 3 17 -4 6 -3 8 2
5 5 -3 10 3 10 13 0 10 -6 16 -13 13 -9 -4 -11 0 -7 11 5 14 9 14 31 -4 14
-10 32 -16 41 -13z m-143 -17 c3 -5 1 -10 -4 -10 -6 0 -11 5 -11 10 0 6 2 10
4 10 3 0 8 -4 11 -10z m-130 -40 c-3 -5 -16 -10 -28 -9 -21 0 -21 1 -2 9 28
12 37 12 30 0z m69 4 c14 -5 14 -8 0 -21 -8 -9 -12 -18 -9 -21 3 -4 11 0 16 8
9 13 10 13 6 0 -4 -16 -57 -23 -57 -9 0 5 5 9 11 9 5 0 7 5 4 10 -3 6 -3 15 0
20 7 12 8 12 29 4z m83 -11 c2 -6 -1 -14 -6 -18 -7 -4 -8 0 -4 11 4 10 2 15
-3 11 -6 -3 -16 -1 -24 4 -11 7 -9 8 9 6 14 -2 27 -9 28 -14z m-322 -13 c-3
-5 -11 -10 -16 -10 -6 0 -7 5 -4 10 3 6 11 10 16 10 6 0 7 -4 4 -10z m289 1
c3 -5 -1 -14 -9 -21 -10 -9 -15 -9 -15 -1 0 6 6 11 13 11 8 0 7 4 -3 10 -9 6
-10 10 -3 10 6 0 14 -4 17 -9z m-109 -30 c-3 -6 -11 -11 -16 -11 -5 0 -4 6 3
14 14 16 24 13 13 -3z m-123 -24 c-3 -13 0 -16 14 -11 16 5 16 4 4 -5 -8 -6
-10 -11 -5 -11 6 0 2 -5 -8 -11 -14 -8 -22 -8 -30 1 -9 8 -7 9 8 4 18 -7 19
-6 5 12 -7 10 -21 24 -29 31 -12 10 -9 12 16 10 23 -1 29 -6 25 -20z m-66 -15
c1 -7 0 -8 -3 -2 -2 5 -13 0 -23 -12 l-18 -23 -25 25 -25 25 46 0 c28 -1 47
-5 48 -13z m20 -21 c-4 -5 0 -12 6 -14 7 -3 3 -6 -9 -6 -12 -1 -25 4 -29 11
-4 6 -3 8 4 4 6 -3 13 -2 17 4 3 5 8 10 11 10 3 0 3 -4 0 -9z m-86 -21 c0 -5
-10 -10 -22 -9 -22 0 -22 1 -3 9 11 5 21 9 23 9 1 1 2 -3 2 -9z"/>
<path d="M2010 1771 c0 -6 4 -13 10 -16 6 -3 7 1 4 9 -7 18 -14 21 -14 7z"/>
<path d="M1675 1750 c-4 -6 -2 -17 4 -24 6 -7 7 -16 3 -21 -4 -4 0 -5 8 -3 8
3 14 11 12 18 -3 11 0 11 12 1 8 -7 20 -10 26 -6 17 10 11 23 -9 18 -10 -2
-25 3 -34 11 -10 11 -18 12 -22 6z"/>
<path d="M1610 1613 c0 -15 18 -35 23 -27 3 5 -1 15 -9 22 -8 7 -14 9 -14 5z"/>
<path d="M1699 1553 c-8 -10 -9 -14 -2 -10 7 4 16 0 22 -10 7 -14 13 -15 21
-6 9 8 7 13 -10 18 -18 6 -20 9 -9 16 8 5 9 9 3 9 -6 0 -18 -8 -25 -17z"/>
<path d="M1490 1419 c-13 -9 -13 -10 1 -6 9 3 23 0 30 -6 11 -10 11 -9 0 6 -7
9 -14 17 -15 17 0 0 -8 -5 -16 -11z"/>
<path d="M1550 1366 c0 -2 7 -9 15 -16 9 -7 15 -8 15 -2 0 5 -7 12 -15 16 -8
3 -15 4 -15 2z"/>
<path d="M1615 1040 c-8 -13 5 -13 25 0 13 8 13 10 -2 10 -9 0 -20 -4 -23 -10z"/>
<path d="M1803 975 c-3 -9 -3 -19 1 -22 3 -4 6 1 6 10 0 10 5 17 11 17 6 0 8
-9 4 -21 -6 -19 -5 -20 8 -8 11 10 12 18 5 27 -14 16 -27 15 -35 -3z"/>
<path d="M1595 940 c6 -10 3 -12 -12 -8 -15 4 -20 1 -18 -11 2 -9 -6 -31 -16
-48 -10 -18 -15 -33 -11 -33 4 0 15 14 24 31 11 18 22 27 29 23 8 -4 9 -3 5 5
-4 6 -3 18 4 26 8 10 8 15 -1 21 -8 5 -9 3 -4 -6z"/>
<path d="M1967 1573 c-3 -4 3 -19 14 -32 23 -28 24 -23 5 14 -8 14 -16 23 -19
18z"/>
<path d="M2115 1560 c-3 -5 -2 -10 4 -10 5 0 13 5 16 10 3 6 2 10 -4 10 -5 0
-13 -4 -16 -10z"/>
<path d="M2160 1420 c0 -5 7 -7 15 -4 8 4 15 8 15 10 0 2 -7 4 -15 4 -8 0 -15
-4 -15 -10z"/>
<path d="M2193 1320 c-1 -11 2 -22 6 -24 3 -3 8 6 9 20 1 13 -2 24 -6 24 -4 0
-8 -9 -9 -20z"/>
<path d="M2170 960 c0 -5 6 -10 13 -10 8 0 7 -4 -3 -10 -8 -5 -10 -10 -5 -10
6 0 16 4 24 9 11 7 9 11 -8 20 -14 8 -21 8 -21 1z"/>
<path d="M1695 730 c3 -6 -1 -13 -9 -16 -9 -3 -13 -10 -10 -16 3 -5 15 -1 27
9 13 12 17 13 11 3 -5 -8 -9 -27 -9 -43 0 -25 1 -26 13 -10 9 12 9 19 2 21 -8
3 -7 8 1 18 9 11 9 18 -1 29 -14 17 -35 21 -25 5z"/>
<path d="M1891 587 c-8 -10 -7 -14 2 -14 8 0 14 6 14 14 0 7 -1 13 -2 13 -2 0
-8 -6 -14 -13z"/>
<path d="M2000 484 c0 -8 5 -12 10 -9 6 4 8 11 5 16 -9 14 -15 11 -15 -7z"/>
<path d="M1530 149 c0 -5 5 -7 10 -4 6 3 10 8 10 11 0 2 -4 4 -10 4 -5 0 -10
-5 -10 -11z"/>
<path d="M1258 63 c7 -3 16 -2 19 1 4 3 -2 6 -13 5 -11 0 -14 -3 -6 -6z"/>
<path d="M918 2223 c6 -2 18 -2 25 0 6 3 1 5 -13 5 -14 0 -19 -2 -12 -5z"/>
<path d="M329 1913 l-34 -38 38 34 c20 19 37 36 37 38 0 8 -8 0 -41 -34z"/>
<path d="M489 1873 c-13 -16 -12 -17 4 -4 9 7 17 15 17 17 0 8 -8 3 -21 -13z"/>
<path d="M815 1860 c10 -11 20 -20 23 -20 3 0 -3 9 -13 20 -10 11 -20 20 -23
20 -3 0 3 -9 13 -20z"/>
<path d="M339 1713 c-13 -16 -12 -17 4 -4 9 7 17 15 17 17 0 8 -8 3 -21 -13z"/>
<path d="M1050 1246 c0 -2 8 -10 18 -17 15 -13 16 -12 3 4 -13 16 -21 21 -21
13z"/>
<path d="M965 930 c10 -11 20 -20 23 -20 3 0 -3 9 -13 20 -10 11 -20 20 -23
20 -3 0 3 -9 13 -20z"/>
<path d="M230 446 c0 -2 8 -10 18 -17 15 -13 16 -12 3 4 -13 16 -21 21 -21 13z"/>
<path d="M522 405 c0 -16 2 -22 5 -12 2 9 2 23 0 30 -3 6 -5 -1 -5 -18z"/>
<path d="M560 156 c0 -2 7 -7 16 -10 8 -3 12 -2 9 4 -6 10 -25 14 -25 6z"/>
</g>
</svg>
